<svg id="Capa_1" data-name="Capa 1" xmlns="http://www.w3.org/2000/svg" viewBox="0 0 287.38 221"><defs><style>.cls-1{fill:#efca2e;stroke:#000;stroke-miterlimit:10;stroke-width:2px;}</style></defs><title>Sin tiÌtulo-2</title><path d="M252.52,62.7S256,66.21,256,68.85c0,0-61.49-40.41-132.65,15.81,0,0-15.81,12.3-6.15,13.18s7,2.64,7,2.64-17.57,8.78-14.06-7.91,46.56-34.61,62.37-39,65-4.92,79.94,9.14" transform="translate(-7.31 -13)"/><path d="M115.63,103.28a6.74,6.74,0,0,1-4.19-1.22c-2.13-1.65-2.71-4.88-1.72-9.6,3.5-16.61,45.71-34.66,62.73-39.38,16.25-4.51,65.45-4.84,80.42,9.25h0c.15.15,3.66,3.69,3.66,6.5a.5.5,0,0,1-.77.42c-.15-.1-15.59-10.09-39.48-13.1-22-2.78-56,0-92.59,28.89-3.86,3-9.72,8.64-9,11,.21.71,1.09,1.14,2.62,1.28,6.52.59,7.58,1.57,7.78,2.35a1.15,1.15,0,0,1-.52,1.2C124.24,101,119.7,103.28,115.63,103.28Zm85.09-52c-11.14,0-21.71,1-28,2.73-16.84,4.68-58.61,22.44-62,38.63-.91,4.32-.46,7.21,1.35,8.61,3.69,2.85,11.91-1.21,12-1.25h0s0-.07.05-.1-.29-1-6.9-1.59c-2-.18-3.15-.85-3.49-2-1.11-3.78,8.3-11.23,9.38-12.07C160,55.12,194.22,52.35,216.46,55.17a105.49,105.49,0,0,1,38.91,12.68,14.25,14.25,0,0,0-3.2-4.8C245.73,57,231.77,53,212.85,51.71,208.85,51.44,204.74,51.31,200.71,51.31Z" transform="translate(-7.31 -13)"/><path d="M176.09,154.5a43,43,0,0,1,9.83,6.79,53,53,0,0,1,8,9.13,46.84,46.84,0,0,1,5.65,11.07l.52,1.49c.15.51.27,1,.41,1.53a31.19,31.19,0,0,1,.72,3.11,44.11,44.11,0,0,1,.7,6.37l0,3.22-.31,3.2c-.12,1.06-.4,2.1-.59,3.15a22.25,22.25,0,0,1-.82,3.09,45.06,45.06,0,0,1-2.29,5.9,46.66,46.66,0,0,1-3.14,5.39A50.3,50.3,0,0,1,177,234c4.46-6.56,8.64-12.88,11.56-19.51l.57-1.23c.19-.41.31-.84.47-1.26l1-2.49c.45-1.71,1.08-3.35,1.37-5.06a23.55,23.55,0,0,0,.5-2.54c.1-.85.29-1.7.34-2.55l.2-2.56v-2.57a52.37,52.37,0,0,0-5.12-20.31A114,114,0,0,0,176.09,154.5Z" transform="translate(-7.31 -13)"/><path d="M202.45,160.21a41.25,41.25,0,0,1,9.13,5.68,52.41,52.41,0,0,1,7.74,7.64,42.45,42.45,0,0,1,9.41,20.33,24.11,24.11,0,0,1,.3,2.91,27.29,27.29,0,0,1,.08,2.94c-.06,1-.09,2-.2,2.94s-.28,1.95-.46,2.91a34.72,34.72,0,0,1-4.34,10.71,38.79,38.79,0,0,1-16.39,14.21c4.1-5.88,7.78-11.54,10.09-17.43a40.63,40.63,0,0,0,2.23-8.91c0-.75.12-1.5.18-2.24s0-1.5,0-2.24a21.77,21.77,0,0,0-.11-2.24,18.21,18.21,0,0,0-.28-2.24,54.93,54.93,0,0,0-6.35-17.71A171.55,171.55,0,0,0,202.45,160.21Z" transform="translate(-7.31 -13)"/><path d="M106.45,177.47c-7.35-12.73,4-31.13,27.52-44.73l.5.87c-23,13.3-34.21,31.13-27.15,43.36Z" transform="translate(-7.31 -13)"/><path d="M116.36,102.23c-6.27,2.51-8.94,7.24-9.46,9.24a4.89,4.89,0,0,0,0,1.92,3.63,3.63,0,0,1-.22,1.66,6.6,6.6,0,0,1-1.85,2.7c-4.06,3.69-21.5,27.6-4,50.47a.25.25,0,0,0,.45-.18c-.43-3.71.69-17.43,23.92-32.42,4-2,5.19-6.45,5.53-8.48a.93.93,0,0,1,1.13-.74c2.38.53,4.61-.24,5.24-1.92s-.55-4.16-2.74-5.36a.65.65,0,0,1-.36-.6c.14-2.43,1.53-2.3,2.51-1.9a30.4,30.4,0,0,0,4.67,1.58,59.93,59.93,0,0,0,23.55.73c11.89-2.1,18.21-1.41,20.29-1a3.5,3.5,0,0,1,1.73.81c1.07,1,1.59,2.61-7.82,2.61h0c-3.81,0-13,1.06-13,1.06-9.78,1-21,4.7-31.61,10.81-23.21,13.4-34.48,31.66-27.33,44a14.45,14.45,0,0,0,3.34,3.92l-2.65-1.61C70.68,151.42,97,119.8,99.67,118h0a9.49,9.49,0,0,0,2.64-7c0-8.78,10.54-9.66,10.54-9.66Z" transform="translate(-7.31 -13)"/><path d="M110.22,181.64a.5.5,0,0,1-.26-.07L107.31,180c-13.5-10.28-20.11-22.08-19.7-35.11.46-14.57,9.73-25.81,11.75-27.21A9.07,9.07,0,0,0,101.8,111c0-9.14,10.89-10.15,11-10.16a.46.46,0,0,1,.16,0l3.51.88a.5.5,0,0,1,.06.95c-6.28,2.51-8.74,7.27-9.16,8.9a4.45,4.45,0,0,0,0,1.73,4.07,4.07,0,0,1-.24,1.89,7,7,0,0,1-2,2.9c-4,3.67-20.83,26.82-4.48,49.13-.06-1.91.27-6,3.2-11.43,3.92-7.22,11-14.16,21-20.62,3.89-1.95,5-6.34,5.31-8.14a1.4,1.4,0,0,1,.6-.94,1.46,1.46,0,0,1,1.13-.21c2.17.48,4.13-.2,4.66-1.61s-.58-3.69-2.51-4.75a1.14,1.14,0,0,1-.62-1.07,2.76,2.76,0,0,1,1-2.33,2.33,2.33,0,0,1,2.17,0,30.08,30.08,0,0,0,4.59,1.56,59.76,59.76,0,0,0,23.35.73c11.9-2.1,18.28-1.43,20.47-1a4,4,0,0,1,2,.93c.8.72.8,1.32.66,1.7-.32.83-1.6,1.79-8.81,1.79h0c-3.74,0-12.89,1-13,1.06-10.08,1.05-21.23,4.87-31.42,10.75-23,13.3-34.21,31.13-27.15,43.36a14,14,0,0,0,3.23,3.79.5.5,0,0,1-.32.89ZM99.89,118.49C98,119.87,89,131,88.61,144.88c-.39,12.45,5.85,23.79,18.55,33.7q-.38-.54-.71-1.11c-7.35-12.73,4-31.13,27.52-44.73,10.31-6,21.6-9.81,31.81-10.88.37,0,9.3-1.07,13.09-1.07h0c7.08,0,7.8-1,7.87-1.14s-.07-.31-.39-.6a3,3,0,0,0-1.49-.69c-2.14-.38-8.37-1-20.12,1a60.76,60.76,0,0,1-23.75-.74,31,31,0,0,1-4.75-1.61A1.48,1.48,0,0,0,135,117c-.33.2-.52.74-.57,1.54a.17.17,0,0,0,.1.13c2.38,1.3,3.71,4,3,6s-3.15,2.83-5.81,2.24a.46.46,0,0,0-.35.06.4.4,0,0,0-.18.27c-.33,2-1.55,6.72-5.8,8.84-2.56,1.66-25.4,16.86-23.65,31.92a.75.75,0,0,1-1.35.54c-17.64-23.12-.08-47.33,4.11-51.15a6.07,6.07,0,0,0,1.72-2.49,3.1,3.1,0,0,0,.2-1.43,5.35,5.35,0,0,1,0-2.12c.52-2,2.93-6.31,8.41-9l-2-.5c-1,.1-10,1.24-10,9.16A10,10,0,0,1,100,118.4.5.5,0,0,1,99.89,118.49Zm1.27,49.42h0Z" transform="translate(-7.31 -13)"/><path d="M132.17,120.68c-3.51-.88-8.86-4.46-8.86-4.46h0c-1.64-.35-1.89-.23-3-1.75a2.27,2.27,0,0,1-.09-3,1.08,1.08,0,0,1,1.13-.3c9.12,2.76,10.81,9.49,10.81,9.49" transform="translate(-7.31 -13)"/><path d="M132.17,121.18l-.12,0c-3.36-.84-8.22-4-8.94-4.47l-.4-.08a3.43,3.43,0,0,1-2.79-1.84,2.77,2.77,0,0,1-.07-3.59,1.58,1.58,0,0,1,1.66-.46c9.29,2.81,11.07,9.56,11.15,9.84a.5.5,0,0,1-.48.62Zm-8.76-5.45a.52.52,0,0,1,.18.07,43.3,43.3,0,0,0,7.77,4.1c-.81-1.87-3.37-6.2-10.14-8.24a.58.58,0,0,0-.6.15,1.8,1.8,0,0,0,.11,2.36c.86,1.19,1,1.22,2.17,1.45l.51.1Z" transform="translate(-7.31 -13)"/><path d="M182.89,111.6a39.28,39.28,0,0,0,20.44-5.86c22-13.18,36-8.78,36-8.78a1.76,1.76,0,1,1,0,3.51s-11-3.66-35.32,10.89c63.12-6.13,66.06,9.32,66.06,9.32s-23-16.94-78,.4c0,0,1.6-5.67-4.55-4.79s-10.77-2.93-4.62-4.68Z" transform="translate(-7.31 -13)"/><path d="M270.82,121.83l-1-.75c-.23-.17-23.48-16.58-77.58.47l-.88.28.25-.89s.6-2.19-.46-3.4c-.65-.75-1.84-1-3.53-.76-3.88.55-7.64-.69-8.06-2.65-.16-.73.05-2.1,3.23-3l.14,0a38.88,38.88,0,0,0,20.18-5.79c21.34-12.81,35.12-9.22,36.35-8.85a2.26,2.26,0,0,1-.08,4.51l-.16,0c-.11,0-10.5-3.19-33,9.7,60.69-5.53,64.23,9.29,64.35,9.93Zm-82.1-6.14a4,4,0,0,1,3.15,1.19,4.5,4.5,0,0,1,.83,3.47c28.1-8.73,47.62-8.35,59.09-6.47,8.89,1.46,14.37,4,16.91,5.36-2.94-3.65-15.22-12.18-64.63-7.38l-2.22.22,1.91-1.14c23.42-14,34.48-11.3,35.64-11a1.26,1.26,0,0,0-.07-2.51l-.15,0c-.14,0-14.13-4.15-35.61,8.74A39.88,39.88,0,0,1,183,112.1c-1.65.48-2.59,1.18-2.46,1.82.24,1.1,3.12,2.42,6.94,1.87A9.06,9.06,0,0,1,188.72,115.69Z" transform="translate(-7.31 -13)"/><path d="M211.23,66.21A59.72,59.72,0,0,1,230.32,66c1.59.22,3.19.4,4.75.77s3.16.59,4.7,1,3.1.84,4.64,1.29l4.55,1.59,1.13.41,1.11.48,2.21,1c1.47.65,2.95,1.27,4.35,2.06L262,76.85c1.39.79,2.72,1.7,4.06,2.57a80.94,80.94,0,0,1,7.69,5.69l.92.75.88.81c.58.55,1.17,1.09,1.73,1.65,1.14,1.11,2.28,2.22,3.37,3.36-1.38-.8-2.72-1.64-4.05-2.49s-2.59-1.77-4-2.49l-4.05-2.36c-1.32-.82-2.71-1.53-4.09-2.25l-4.12-2.17-4.22-2c-1.39-.69-2.82-1.26-4.26-1.84l-2.14-.9-1.07-.45-1.09-.38-4.36-1.58-4.42-1.4c-3-.91-6-1.68-9-2.38A122.31,122.31,0,0,0,211.23,66.21Z" transform="translate(-7.31 -13)"/><path d="M222.65,81.14a71.16,71.16,0,0,1,12.51,1.08,93,93,0,0,1,12.27,2.94,85.37,85.37,0,0,1,22.9,11,69.75,69.75,0,0,1,9.82,8.34A55.33,55.33,0,0,1,288,114.81a48.22,48.22,0,0,1,5,11.81l.76,3.1c.19,1,.36,2.09.5,3.14l.22,1.56.09,1.58c0,1.05.09,2.1.11,3.14-.36-1-.66-2-1-3l-.46-1.47-.57-1.44c-.4-.95-.72-1.91-1.11-2.85l-1.3-2.75a61.28,61.28,0,0,0-6.2-10.24,67.28,67.28,0,0,0-7.9-8.83,86.65,86.65,0,0,0-9.25-7.46A124.88,124.88,0,0,0,245.8,89.57,216.05,216.05,0,0,0,222.65,81.14Z" transform="translate(-7.31 -13)"/><path d="M133.75,144.86c7.38-3.43,14.92-6.47,22.55-9.29s15.36-5.41,23.2-7.71,15.79-4.24,23.85-5.82A182.34,182.34,0,0,1,227.91,119a108.41,108.41,0,0,1,25.23,1.28,56,56,0,0,1,12.49,3.88l1.51.7,1.48.79,1.47.8q.72.44,1.42.91l1.4.93,1.35,1c.45.35.9.68,1.34,1l1.27,1.13a39.27,39.27,0,0,1,8.23,10.67,42.79,42.79,0,0,1,4.21,12.45,59.94,59.94,0,0,1-1.2,25,.46.46,0,0,1-.9-.08h0c-.6-8.13-1.54-16.1-4-23.32a44.78,44.78,0,0,0-4.92-10,35.11,35.11,0,0,0-7.27-7.9c-5.58-4.48-12.45-7.38-19.79-9.33a89.43,89.43,0,0,0-23.09-2.78,175.81,175.81,0,0,0-23.78,1.76c-7.93,1.05-15.84,2.51-23.7,4.27a380.66,380.66,0,0,0-46.52,13.47h0a.45.45,0,0,1-.34-.83Z" transform="translate(-7.31 -13)"/><path d="M147.82,143.71a274.69,274.69,0,0,1,43-9.05A219.66,219.66,0,0,1,213,133a139.36,139.36,0,0,1,22.6,1.41c7.57,1.21,15.34,2.94,22.85,6.66a39.31,39.31,0,0,1,10.42,7.55,33.71,33.71,0,0,1,7.23,11.19,38.33,38.33,0,0,1,1.82,6.34c.25,1.06.31,2.14.46,3.2a26.12,26.12,0,0,1,.2,3.17c0,.53,0,1.05,0,1.57l-.08,1.55a26.93,26.93,0,0,1-.27,3.07c-.15,1-.25,2-.45,3l-.65,2.92a59.29,59.29,0,0,1-10,20.64.73.73,0,0,1-1.3-.51h0c.77-7.45,1.58-14.57,1.43-21.33s-1.35-13-4-17.93a34.88,34.88,0,0,0-11.75-12.42,56.13,56.13,0,0,0-18.11-7.69,129.2,129.2,0,0,0-20.72-3.1,211.5,211.5,0,0,0-21.4-.65c-7.18.07-14.39.46-21.6,1q-5.41.42-10.81,1c-3.6.38-7.21.82-10.79,1.36h0a.7.7,0,0,1-.31-1.37Z" transform="translate(-7.31 -13)"/><path d="M163.06,143.85A160.84,160.84,0,0,1,182,142.52a170.34,170.34,0,0,1,19.12.8,117.07,117.07,0,0,1,19.24,3.53,69.58,69.58,0,0,1,18.82,8.24,54.45,54.45,0,0,1,8.71,6.9,38.69,38.69,0,0,1,7.11,9.47A32.88,32.88,0,0,1,258.53,183a37.08,37.08,0,0,1-.57,11.56,51.52,51.52,0,0,1-8.68,19.24,55.62,55.62,0,0,1-14.29,14,1,1,0,0,1-1.5-1v0q.43-2.5,1-4.83c.34-1.58.72-3.13,1.11-4.64s.73-3,1.09-4.51.72-2.94,1-4.39a88.63,88.63,0,0,0,2.38-16.31,44.13,44.13,0,0,0-1.45-13.52,22.91,22.91,0,0,0-2.88-6.24,26.41,26.41,0,0,0-5.08-5.64,60.8,60.8,0,0,0-14.38-8.62,121.35,121.35,0,0,0-16.87-6,181.7,181.7,0,0,0-17.92-4q-4.56-.82-9.17-1.43c-3.07-.44-6.17-.79-9.25-1.07h0a.9.9,0,0,1,0-1.8Z" transform="translate(-7.31 -13)"/><path d="M110.06,161.52c-.12,0-.16,0-.17-.05-.41-.38-.29-1.67.88-3.68,10.24-19.65,42-28.68,56-31.78-33,12.19-47.5,27-51.31,31.43a17.16,17.16,0,0,1-3.69,3.29,4,4,0,0,1-1.73.78Z" transform="translate(-7.31 -13)"/><path d="M160,128.18c-13.85,5.73-33.46,15.58-44.87,28.93a16.68,16.68,0,0,1-3.58,3.2,5,5,0,0,1-1.33.68c-.06-.32,0-1.3,1-3,8.69-16.68,33.15-25.65,48.74-29.81m13.5-4h0Zm0,0s-49.64,7.48-63.12,33.34h0c-1.15,2-1.51,3.62-.79,4.3a.72.72,0,0,0,.52.19,4.38,4.38,0,0,0,2-.86,17.63,17.63,0,0,0,3.79-3.39c4.29-5,20.27-21.13,57.61-33.57Z" transform="translate(-7.31 -13)"/><path d="M207.49,87.73c-6.71-1.08-16.43-.63-24.92.8a106.92,106.92,0,0,1-19.66,1.4s3.2,2,0,13.18c0,0,11.08-15.52,44.09-15.38" transform="translate(-7.31 -13)"/><path d="M161.64,105.76l.8-2.79c3-10.52.23-12.6.21-12.62l-1.4-1,1.7.06A107.38,107.38,0,0,0,182.49,88c9-1.52,18.66-1.83,25.08-.8a.5.5,0,1,1-.16,1l-.21,0a1,1,0,0,1-.2,0h-.43c-32,0-43.14,15-43.25,15.17ZM164,90.45c.75,1.33,1.5,4.32-.06,10.76,3.46-3.5,13.54-11.65,33.71-13.57a100.52,100.52,0,0,0-15,1.38A110.56,110.56,0,0,1,164,90.45Z" transform="translate(-7.31 -13)"/><path d="M200.62,96.25a72.82,72.82,0,0,0-30.83,14.39,33.5,33.5,0,0,1-12.76,5,14.81,14.81,0,0,1-5-.14c-2.42-.46-6.72-1.1-8.36-.2-2.34,1.27-6.54,0-6.54,0a49.73,49.73,0,0,1-10.32-4.75c-8.35-4.87-11.31-1-11.31-1s-1.56-5.09,6.27-6.27a17.06,17.06,0,0,0,3.16-.75l5.26-1.82a10,10,0,0,0,5.46-4.49c2.09-3.66,6-9.29,10.47-10.22a.48.48,0,0,1,.54.66,7,7,0,0,1-2.22,2.64,8.9,8.9,0,0,0-3.23,3.82,1.28,1.28,0,0,0,.34,1.47l.12.11a1.26,1.26,0,0,0,1.74-.08c3.23-3.34,15.48-15.5,28.86-22.39l-.25.28.32-.32a24.08,24.08,0,0,1,7.11-2.4c3.11-.29,2,1.58,1.5,2-3.3,2.74-12.78,5.86-15.21,8a1.11,1.11,0,0,0,.74,2,193.81,193.81,0,0,0,23.15-1.93s9-2,10.26,1.39a1.39,1.39,0,0,1,.09.49,2,2,0,0,1-.86,1.53c-28,1.13-38.18,5.05-41,6.52a.89.89,0,0,0-.28,1.35,7.46,7.46,0,0,1-11,10c.22-.11.44-.22.66-.35,1.43-.9,2.25-2.18,1.82-2.86s-1.92-.5-3.36.4a7.31,7.31,0,0,0-.74.54l0,0-.26.24c-.76.75-1.12,1.56-.8,2.06a14.83,14.83,0,0,0,1.92,2,7.27,7.27,0,0,0,4.41,2.08h0c3.66-.37,6.76-.25,5.82,1.37-1.63,2.82-3.66,3-4.49,2.89a14.86,14.86,0,0,0-1.65,0l-1.05,0a13.18,13.18,0,0,0,12.9-.31c2.62-1.56,6.18-3.79,11-7C187.66,92.27,200.62,96.25,200.62,96.25Z" transform="translate(-7.31 -13)"/><path d="M140.91,116.36a15.24,15.24,0,0,1-3.94-.59,50,50,0,0,1-10.43-4.8c-7.81-4.55-10.56-1.26-10.67-1.12l-.59.74-.28-.9a4.81,4.81,0,0,1,.58-3.73c1-1.65,3.09-2.72,6.1-3.18a16.54,16.54,0,0,0,3.07-.72l5.26-1.82A9.51,9.51,0,0,0,135.2,96c2.43-4.26,6.28-9.53,10.8-10.46a1,1,0,0,1,1,.36,1,1,0,0,1,.12,1,7.59,7.59,0,0,1-2.38,2.84,8.41,8.41,0,0,0-3.06,3.6.79.79,0,0,0,.2.9l.12.11a.76.76,0,0,0,1.05,0c3.43-3.54,15.65-15.63,29-22.49l2.33-1.2-.17.2a19.34,19.34,0,0,1,5.2-1.48c1.41-.13,2.27.15,2.56.84a2,2,0,0,1-.69,2c-1.79,1.49-5.22,3-8.53,4.51-2.87,1.29-5.57,2.5-6.67,3.45a.6.6,0,0,0-.18.69.57.57,0,0,0,.57.38,192.5,192.5,0,0,0,23.08-1.93c.93-.2,9.43-1.94,10.8,1.71a1.9,1.9,0,0,1,.12.67,2.47,2.47,0,0,1-1.1,2l-.11.07h-.13c-28.54,1.15-38.43,5.24-40.79,6.46a.39.39,0,0,0-.2.26.4.4,0,0,0,.08.34,8,8,0,0,1-11.74,10.69l-.53-.5.65-.31c.21-.1.41-.21.62-.33a3.65,3.65,0,0,0,1.67-1.86.32.32,0,0,0-.28-.45,3.68,3.68,0,0,0-2.4.7,6.66,6.66,0,0,0-.68.5l-.25.23c-.7.69-.85,1.25-.73,1.43h0a14.71,14.71,0,0,0,1.83,1.94,7,7,0,0,0,4,2h0c4.9-.49,6,.13,6.37.74a1.25,1.25,0,0,1-.06,1.38c-1.77,3.06-4.06,3.22-5,3.14h-.15a12.81,12.81,0,0,0,10.14-1.23c3.14-1.88,6.82-4.23,10.94-7A38.44,38.44,0,0,1,192.28,95a27,27,0,0,1,8.49.78l1.86.57-1.9.4A72.92,72.92,0,0,0,170.13,111a34.09,34.09,0,0,1-13,5.11,15.33,15.33,0,0,1-5.19-.14c-4-.76-6.94-.85-8-.25A6.32,6.32,0,0,1,140.91,116.36Zm-21.53-8.78c1.85,0,4.35.6,7.66,2.53a49,49,0,0,0,10.22,4.71s4,1.2,6.16,0c1.67-.91,5.65-.42,8.69.15a14.33,14.33,0,0,0,4.85.14,33,33,0,0,0,12.56-4.92,73.56,73.56,0,0,1,28.7-13.94c-4.3-.62-14.21-1-25,6.29-4.13,2.78-7.83,5.14-11,7a13.91,13.91,0,0,1-13.4.32l-1.69-.89,3-.07a15.3,15.3,0,0,1,1.71,0c.71.06,2.53-.07,4-2.64,0-.07.14-.26.08-.34s-.61-.73-5-.33v.05h-.51a7.52,7.52,0,0,1-4.73-2.21,15.21,15.21,0,0,1-2-2.12c-.47-.72-.13-1.75.85-2.71l.3-.27a7.45,7.45,0,0,1,.8-.6,4.6,4.6,0,0,1,3.17-.83,1.3,1.3,0,0,1,1,1.65,4.58,4.58,0,0,1-2.13,2.49l0,0a6.92,6.92,0,0,0,5.13,1.39,7,7,0,0,0,4.6-11.2,1.41,1.41,0,0,1-.27-1.17,1.39,1.39,0,0,1,.72-.94c3.07-1.6,13.22-5.43,41.06-6.57a1.47,1.47,0,0,0,.53-1,.88.88,0,0,0-.06-.32c-.91-2.41-7.3-1.59-9.68-1.07a193.43,193.43,0,0,1-23.24,1.94,1.61,1.61,0,0,1-1.08-2.83c1.2-1,4-2.29,6.91-3.61,3.25-1.46,6.62-3,8.3-4.37.21-.17.49-.67.4-.87s-.44-.33-1.54-.23a23.29,23.29,0,0,0-6.85,2.31l-.26.26-.09-.08C159.14,79.6,147.13,91.47,143.75,95a1.76,1.76,0,0,1-2.43.11L141.2,95a1.78,1.78,0,0,1-.48-2,9.39,9.39,0,0,1,3.4-4,6.58,6.58,0,0,0,2.06-2.45c-4.36.94-8.22,6.68-10.12,10a10.5,10.5,0,0,1-5.73,4.71L125.08,103a17.5,17.5,0,0,1-3.25.77c-2.69.41-4.51,1.32-5.39,2.71a3.79,3.79,0,0,0-.58,2.08A6.14,6.14,0,0,1,119.38,107.58Z" transform="translate(-7.31 -13)"/><path d="M148.31,21.79,16.1,219.06H161.31q1-1.92,1.9-3.89a52,52,0,0,0,3.2-10.4c.12-.9.29-1.77.44-2.65l.24-2.68c.11-.89.07-1.79.11-2.69a25.16,25.16,0,0,0,0-2.7,72.16,72.16,0,0,0-4.63-21.73c-1.28-3.62-2.78-7.22-4.43-10.81s-3.39-7.2-5.28-10.88a48.8,48.8,0,0,1,9.24,8.3,63.23,63.23,0,0,1,7.33,10.18,53.66,53.66,0,0,1,7.42,24.57,43,43,0,0,1-1.48,13.19,15.06,15.06,0,0,1-.49,1.59L174.3,210c-.19.52-.35,1.05-.57,1.56l-.69,1.5-.71,1.49-.35.75-.41.71-1.7,2.8c-.6.91-1.29,1.75-1.94,2.62l-1,1.28-1.18,2.14a4.41,4.41,0,0,1-4.16,3H16.1a8.79,8.79,0,0,1-7.3-13.68L141,16.89a8.79,8.79,0,0,1,14.14-.61l21.72,27A4.39,4.39,0,1,1,170,48.76Z" transform="translate(-7.31 -13)"/><polygon class="cls-1" points="69.5 179.88 76.54 175.57 83.59 179.88 81.67 171.85 87.94 166.48 79.71 165.82 76.54 158.2 73.38 165.82 65.14 166.48 71.42 171.85 69.5 179.88"/><polygon class="cls-1" points="114.3 179.88 121.34 175.57 128.39 179.88 126.47 171.85 132.74 166.48 124.51 165.82 121.34 158.2 118.18 165.82 109.95 166.48 116.22 171.85 114.3 179.88"/><polygon class="cls-1" points="46.66 200.08 53.7 195.78 60.75 200.08 58.83 192.05 65.1 186.68 56.87 186.03 53.7 178.4 50.53 186.03 42.3 186.68 48.58 192.05 46.66 200.08"/><polygon class="cls-1" points="90.58 200.08 97.63 195.78 104.67 200.08 102.75 192.05 109.03 186.68 100.79 186.03 97.63 178.4 94.46 186.03 86.23 186.68 92.5 192.05 90.58 200.08"/><polygon class="cls-1" points="137.14 200.08 144.19 195.78 151.23 200.08 149.31 192.05 155.58 186.68 147.35 186.03 144.19 178.4 141.02 186.03 132.79 186.68 139.06 192.05 137.14 200.08"/></svg>