<?xml version="1.0" encoding="utf-8"?>
<!-- Generator: Adobe Illustrator 21.1.0, SVG Export Plug-In . SVG Version: 6.00 Build 0)  -->
<svg version="1.1" id="Capa_1" xmlns="http://www.w3.org/2000/svg" xmlns:xlink="http://www.w3.org/1999/xlink" x="0px" y="0px"
	 viewBox="0 0 287.4 221" style="enable-background:new 0 0 287.4 221;" xml:space="preserve">
<style type="text/css">
	.st0{fill:#9E9797;}
	.st1{fill:none;stroke:#9E9797;stroke-width:2;stroke-miterlimit:10;}
</style>
<title>Sin tiÌtulo-2</title>
<path class="st0" d="M245.2,49.7c0,0,3.5,3.5,3.5,6.1c0,0-61.5-40.4-132.6,15.8c0,0-15.8,12.3-6.2,13.2s7,2.6,7,2.6
	s-17.6,8.8-14.1-7.9s46.6-34.6,62.4-39S230.2,35.6,245.2,49.7"/>
<path class="st0" d="M108.3,90.3c-1.5,0.1-3-0.4-4.2-1.2c-2.1-1.7-2.7-4.9-1.7-9.6c3.5-16.6,45.7-34.7,62.7-39.4
	c16.2-4.5,65.4-4.8,80.4,9.2l0,0c0.1,0.2,3.7,3.7,3.7,6.5c0,0.3-0.2,0.5-0.5,0.5c-0.1,0-0.2,0-0.3-0.1s-15.6-10.1-39.5-13.1
	c-22-2.8-56,0-92.6,28.9c-3.9,3-9.7,8.6-9,11c0.2,0.7,1.1,1.1,2.6,1.3c6.5,0.6,7.6,1.6,7.8,2.3c0.1,0.5-0.1,0.9-0.5,1.2
	C116.9,88,112.4,90.3,108.3,90.3z M193.4,38.3c-11.1,0-21.7,1-28,2.7c-16.8,4.7-58.6,22.4-62,38.6c-0.9,4.3-0.5,7.2,1.3,8.6
	c3.7,2.8,11.9-1.2,12-1.2l0,0c0,0,0-0.1,0.1-0.1s-0.3-1-6.9-1.6c-2-0.2-3.2-0.8-3.5-2c-1.1-3.8,8.3-11.2,9.4-12.1
	c36.9-29.1,71.1-31.9,93.4-29.1c13.7,1.6,26.9,6,38.9,12.7c-0.7-1.8-1.8-3.4-3.2-4.8c-6.4-6-20.4-10-39.3-11.3
	C201.5,38.4,197.4,38.3,193.4,38.3L193.4,38.3z"/>
<path class="st0" d="M168.8,141.5c3.6,1.8,6.9,4.1,9.8,6.8c3,2.7,5.7,5.8,8,9.1c2.4,3.4,4.3,7.1,5.6,11.1l0.5,1.5
	c0.1,0.5,0.3,1,0.4,1.5c0.3,1,0.5,2.1,0.7,3.1c0.4,2.1,0.6,4.2,0.7,6.4v3.2l-0.3,3.2c-0.1,1.1-0.4,2.1-0.6,3.1
	c-0.2,1-0.5,2.1-0.8,3.1c-0.6,2-1.4,4-2.3,5.9c-0.9,1.9-2,3.7-3.1,5.4c-4.5,6.7-10.6,12.2-17.8,16.1c4.5-6.6,8.6-12.9,11.6-19.5
	l0.6-1.2c0.2-0.4,0.3-0.8,0.5-1.3l1-2.5c0.4-1.7,1.1-3.4,1.4-5.1c0.2-0.8,0.4-1.7,0.5-2.5c0.1-0.9,0.3-1.7,0.3-2.6l0.2-2.6v-2.6
	c-0.3-7-2.1-14-5.1-20.3C177.3,154.1,173.4,147.6,168.8,141.5z"/>
<path class="st0" d="M195.1,147.2c3.3,1.5,6.3,3.4,9.1,5.7s5.4,4.8,7.7,7.6c4.9,5.8,8.2,12.8,9.4,20.3c0.2,1,0.3,1.9,0.3,2.9
	c0.1,1,0.1,2,0.1,2.9c-0.1,1-0.1,2-0.2,2.9s-0.3,1.9-0.5,2.9c-0.8,3.8-2.3,7.4-4.3,10.7c-4,6.2-9.7,11.1-16.4,14.2
	c4.1-5.9,7.8-11.5,10.1-17.4c1.1-2.9,1.8-5.9,2.2-8.9c0-0.8,0.1-1.5,0.2-2.2s0-1.5,0-2.2s0-1.5-0.1-2.2c0-0.8-0.1-1.5-0.3-2.2
	c-1.1-6.2-3.2-12.2-6.4-17.7C202.8,158.5,199.2,152.7,195.1,147.2z"/>
<path d="M99.1,164.5c-7.3-12.7,4-31.1,27.5-44.7l0.5,0.9c-23,13.3-34.2,31.1-27.2,43.4L99.1,164.5z"/>
<path class="st0" d="M109.1,89.2c-6.3,2.5-8.9,7.2-9.5,9.2c-0.1,0.6-0.1,1.3,0,1.9s0,1.1-0.2,1.7c-0.4,1-1,2-1.8,2.7
	c-4.1,3.7-21.5,27.6-4,50.5c0.1,0.1,0.2,0.1,0.3,0.1c0.1-0.1,0.1-0.1,0.1-0.2c-0.4-3.7,0.7-17.4,23.9-32.4c4-2,5.2-6.4,5.5-8.5
	c0.1-0.5,0.6-0.8,1.1-0.8l0,0c2.4,0.5,4.6-0.2,5.2-1.9s-0.6-4.2-2.7-5.4c-0.2-0.1-0.4-0.3-0.4-0.6c0.1-2.4,1.5-2.3,2.5-1.9
	c1.5,0.7,3.1,1.2,4.7,1.6c7.7,1.8,15.7,2,23.6,0.7c11.9-2.1,18.2-1.4,20.3-1c0.6,0.1,1.2,0.4,1.7,0.8c1.1,1,1.6,2.6-7.8,2.6l0,0
	c-3.8,0-13,1.1-13,1.1c-9.8,1-21,4.7-31.6,10.8c-23.2,13.4-34.5,31.7-27.3,44c0.9,1.5,2,2.8,3.3,3.9l-2.7-1.6
	c-37-28.1-10.7-59.7-8-61.5l0,0c1.8-1.9,2.8-4.4,2.6-7c0-8.8,10.5-9.7,10.5-9.7L109.1,89.2z"/>
<path class="st0" d="M102.9,168.6c-0.1,0-0.2,0-0.3-0.1L100,167c-13.5-10.3-20.1-22.1-19.7-35.1c0.5-14.6,9.7-25.8,11.8-27.2
	c1.7-1.8,2.6-4.2,2.4-6.7c0-9.1,10.9-10.2,11-10.2s0.1,0,0.2,0l3.5,0.9c0.3,0.1,0.4,0.3,0.4,0.6c0,0.2-0.2,0.3-0.3,0.3
	c-6.3,2.5-8.7,7.3-9.2,8.9c-0.1,0.6-0.1,1.2,0,1.7c0.1,0.6,0,1.3-0.2,1.9c-0.4,1.1-1.1,2.1-2,2.9c-4,3.7-20.8,26.8-4.5,49.1
	c-0.1-1.9,0.3-6,3.2-11.4c3.9-7.2,11-14.2,21-20.6c3.9-1.9,5-6.3,5.3-8.1c0.1-0.4,0.3-0.7,0.6-0.9c0.3-0.2,0.7-0.3,1.1-0.2
	c2.2,0.5,4.1-0.2,4.7-1.6s-0.6-3.7-2.5-4.8c-0.4-0.2-0.6-0.6-0.6-1.1c-0.1-0.9,0.3-1.8,1-2.3c0.7-0.4,1.5-0.4,2.2,0
	c1.5,0.6,3,1.2,4.6,1.6c7.7,1.8,15.6,2,23.4,0.7c11.9-2.1,18.3-1.4,20.5-1c0.7,0.1,1.4,0.4,2,0.9c0.8,0.7,0.8,1.3,0.7,1.7
	c-0.3,0.8-1.6,1.8-8.8,1.8l0,0c-3.7,0-12.9,1-13,1.1c-10.1,1.1-21.2,4.9-31.4,10.8c-23,13.3-34.2,31.1-27.2,43.4
	c0.8,1.4,1.9,2.7,3.2,3.8c0.2,0.2,0.2,0.5,0.1,0.7C103.2,168.6,103,168.7,102.9,168.6L102.9,168.6z M92.6,105.5
	c-1.9,1.4-10.9,12.5-11.3,26.4c-0.4,12.4,5.8,23.8,18.6,33.7c-0.3-0.4-0.5-0.7-0.7-1.1c-7.3-12.7,4-31.1,27.5-44.7
	c10.3-6,21.6-9.8,31.8-10.9c0.4,0,9.3-1.1,13.1-1.1l0,0c7.1,0,7.8-1,7.9-1.1s-0.1-0.3-0.4-0.6c-0.4-0.4-0.9-0.6-1.5-0.7
	c-2.1-0.4-8.4-1-20.1,1c-7.9,1.3-16,1.1-23.8-0.7c-1.6-0.4-3.2-0.9-4.8-1.6c-0.4-0.2-0.8-0.2-1.2,0c-0.3,0.2-0.5,0.7-0.6,1.5
	c0,0.1,0,0.1,0.1,0.1c2.4,1.3,3.7,4,3,6s-3.1,2.8-5.8,2.2c-0.1,0-0.2,0-0.4,0.1c-0.1,0.1-0.2,0.2-0.2,0.3c-0.3,2-1.6,6.7-5.8,8.8
	c-2.6,1.7-25.4,16.9-23.7,31.9c0.1,0.4-0.2,0.8-0.6,0.8c-0.3,0-0.5-0.1-0.7-0.3c-17.6-23.1-0.1-47.3,4.1-51.2
	c0.8-0.7,1.4-1.5,1.7-2.5c0.2-0.5,0.2-0.9,0.2-1.4c-0.1-0.7-0.1-1.4,0-2.1c0.5-2,2.9-6.3,8.4-9l-2-0.5c-1,0.1-10,1.2-10,9.2
	C95.5,100.7,94.5,103.4,92.6,105.5C92.7,105.4,92.6,105.5,92.6,105.5z M93.8,154.9L93.8,154.9z"/>
<path class="st0" d="M124.9,107.7c-3.5-0.9-8.9-4.5-8.9-4.5l0,0c-1.6-0.3-1.9-0.2-3-1.8c-0.8-0.8-0.8-2.1-0.1-3
	c0.3-0.3,0.7-0.4,1.1-0.3C123.2,100.9,124.9,107.7,124.9,107.7"/>
<path class="st0" d="M124.9,108.2L124.9,108.2c-3.5-0.8-8.3-4-9-4.5l-0.4-0.1c-1.2-0.1-2.2-0.8-2.8-1.8c-0.9-1-0.9-2.5-0.1-3.6
	c0.4-0.5,1.1-0.6,1.7-0.5c9.3,2.8,11.1,9.6,11.2,9.8c0.1,0.3-0.1,0.5-0.4,0.6C124.9,108.2,124.9,108.2,124.9,108.2L124.9,108.2z
	 M116.1,102.7c0.1,0,0.1,0,0.2,0.1c2.4,1.6,5,3,7.8,4.1c-0.8-1.9-3.4-6.2-10.1-8.2c-0.2-0.1-0.4,0-0.6,0.2c-0.6,0.7-0.5,1.7,0.1,2.4
	c0.9,1.2,1,1.2,2.2,1.4H116.1L116.1,102.7z"/>
<path class="st0" d="M175.6,98.6c7.2,0,14.3-2.1,20.4-5.9c22-13.2,36-8.8,36-8.8c1-0.1,1.8,0.7,1.9,1.6s-0.7,1.8-1.6,1.9
	c-0.1,0-0.2,0-0.3,0c0,0-11-3.7-35.3,10.9c63.1-6.1,66.1,9.3,66.1,9.3s-23-16.9-78,0.4c0,0,1.6-5.7-4.6-4.8S169.4,100.4,175.6,98.6
	L175.6,98.6z"/>
<path class="st0" d="M263.5,108.8l-1-0.8c-0.2-0.2-23.5-16.6-77.6,0.5l-0.9,0.3l0.2-0.9c0,0,0.6-2.2-0.5-3.4c-0.6-0.8-1.8-1-3.5-0.8
	c-3.9,0.6-7.6-0.7-8.1-2.7c-0.2-0.7,0.1-2.1,3.2-3h0.1c7.1,0,14.1-2,20.2-5.8c21.3-12.8,35.1-9.2,36.4-8.8c1.2,0.1,2.2,1.2,2.1,2.4
	c-0.1,1.1-1,2-2.1,2.1h-0.2c-0.1,0-10.5-3.2-33,9.7c60.7-5.5,64.2,9.3,64.3,9.9L263.5,108.8z M181.4,102.7c1.2-0.1,2.3,0.3,3.1,1.2
	c0.7,1,1,2.2,0.8,3.5c28.1-8.7,47.6-8.3,59.1-6.5c8.9,1.5,14.4,4,16.9,5.4c-2.9-3.7-15.2-12.2-64.6-7.4l-2.2,0.2l1.9-1.1
	c23.4-14,34.5-11.3,35.6-11c0.7-0.1,1.2-0.7,1.1-1.4c-0.1-0.6-0.6-1.1-1.2-1.1h-0.1c-0.1,0-14.1-4.2-35.6,8.7
	c-6.2,3.8-13.3,5.9-20.6,5.9c-1.6,0.5-2.6,1.2-2.5,1.8c0.2,1.1,3.1,2.4,6.9,1.9C180.6,102.7,181,102.7,181.4,102.7z"/>
<path class="st0" d="M203.9,53.2c6.3-1.1,12.8-1.2,19.1-0.2c1.6,0.2,3.2,0.4,4.8,0.8s3.2,0.6,4.7,1s3.1,0.8,4.6,1.3l4.6,1.6l1.1,0.4
	l1.1,0.5l2.2,1c1.5,0.7,2.9,1.3,4.3,2.1l4.2,2.2c1.4,0.8,2.7,1.7,4.1,2.6c2.7,1.7,5.2,3.6,7.7,5.7l0.9,0.8l0.9,0.8
	c0.6,0.6,1.2,1.1,1.7,1.7c1.1,1.1,2.3,2.2,3.4,3.4c-1.4-0.8-2.7-1.6-4-2.5s-2.6-1.8-4-2.5l-4-2.4c-1.3-0.8-2.7-1.5-4.1-2.2l-4.1-2.2
	l-4.2-2c-1.4-0.7-2.8-1.3-4.3-1.8l-2.1-0.9l-1.1-0.4l-1.1-0.4l-4.4-1.6l-4.4-1.4c-3-0.9-6-1.7-9-2.4
	C216.4,54.6,210.2,53.7,203.9,53.2z"/>
<path class="st0" d="M215.3,68.1c4.2,0,8.4,0.4,12.5,1.1c4.2,0.7,8.3,1.7,12.3,2.9c8.1,2.5,15.9,6.2,22.9,11
	c3.5,2.5,6.8,5.3,9.8,8.3c3,3.1,5.6,6.6,7.9,10.3c2.2,3.7,3.9,7.7,5,11.8l0.8,3.1c0.2,1,0.4,2.1,0.5,3.1l0.2,1.6l0.1,1.6
	c0,1.1,0.1,2.1,0.1,3.1c-0.4-1-0.7-2-1-3l-0.5-1.5l-0.6-1.4c-0.4-0.9-0.7-1.9-1.1-2.9l-1.3-2.8c-1.7-3.6-3.8-7-6.2-10.2
	c-2.4-3.2-5-6.1-7.9-8.8c-2.9-2.7-6-5.2-9.2-7.5c-6.6-4.5-13.7-8.4-21.1-11.5C230.9,73.3,223.2,70.5,215.3,68.1z"/>
<path class="st0" d="M126.4,131.9c7.4-3.4,14.9-6.5,22.6-9.3s15.4-5.4,23.2-7.7s15.8-4.2,23.9-5.8c8.1-1.6,16.3-2.6,24.6-3
	c8.4-0.6,16.9-0.1,25.2,1.3c4.3,0.8,8.5,2.1,12.5,3.9l1.5,0.7l1.5,0.8l1.5,0.8c0.5,0.3,1,0.6,1.4,0.9l1.4,0.9l1.4,1
	c0.5,0.4,0.9,0.7,1.3,1l1.3,1.1c3.3,3.1,6.1,6.7,8.2,10.7c2,3.9,3.5,8.1,4.2,12.4c1.4,8.3,1,16.8-1.2,25c-0.1,0.2-0.3,0.4-0.6,0.3
	c-0.2-0.1-0.3-0.2-0.3-0.4l0,0c-0.6-8.1-1.5-16.1-4-23.3c-1.2-3.5-2.9-6.9-4.9-10c-2-3-4.5-5.7-7.3-7.9c-5.6-4.5-12.5-7.4-19.8-9.3
	c-7.5-1.9-15.3-2.9-23.1-2.8c-8,0-15.9,0.6-23.8,1.8c-7.9,1-15.8,2.5-23.7,4.3c-15.8,3.5-31.3,8-46.5,13.5l0,0
	c-0.2,0.1-0.5-0.1-0.6-0.3C126.2,132.1,126.3,131.9,126.4,131.9L126.4,131.9z"/>
<path class="st0" d="M140.5,130.7c14.1-4.2,28.4-7.2,43-9.1c7.4-0.9,14.8-1.5,22.2-1.7c7.6-0.1,15.1,0.3,22.6,1.4
	c7.6,1.2,15.3,2.9,22.9,6.7c3.9,1.9,7.4,4.5,10.4,7.6c3.1,3.2,5.6,7,7.2,11.2c0.8,2.1,1.4,4.2,1.8,6.3c0.2,1.1,0.3,2.1,0.5,3.2
	c0.1,1.1,0.2,2.1,0.2,3.2c0,0.5,0,1.1,0,1.6l-0.1,1.6c0,1-0.1,2.1-0.3,3.1c-0.1,1-0.2,2-0.5,3l-0.6,2.9c-2,7.5-5.4,14.5-10,20.6
	c-0.3,0.3-0.7,0.4-1,0.1c-0.2-0.2-0.3-0.4-0.3-0.6l0,0c0.8-7.4,1.6-14.6,1.4-21.3s-1.4-13-4-17.9c-2.8-5.1-6.9-9.3-11.8-12.4
	c-5.5-3.6-11.7-6.2-18.1-7.7c-6.8-1.6-13.7-2.6-20.7-3.1c-7.1-0.6-14.3-0.8-21.4-0.6c-7.2,0.1-14.4,0.5-21.6,1
	c-3.6,0.3-7.2,0.6-10.8,1s-7.2,0.8-10.8,1.4l0,0c-0.4,0.1-0.8-0.2-0.8-0.5S140.1,130.7,140.5,130.7L140.5,130.7z"/>
<path class="st0" d="M155.8,130.9c6.3-0.8,12.6-1.3,18.9-1.3c6.4-0.1,12.8,0.2,19.1,0.8c6.5,0.6,12.9,1.8,19.2,3.5
	c6.6,1.8,13,4.6,18.8,8.2c3.1,2,6,4.3,8.7,6.9c2.8,2.8,5.2,6,7.1,9.5c1.9,3.6,3.1,7.5,3.5,11.5c0.4,3.9,0.2,7.8-0.6,11.6
	c-1.5,6.9-4.5,13.5-8.7,19.2c-3.9,5.5-8.7,10.2-14.3,14c-0.5,0.3-1.1,0.1-1.4-0.4c-0.1-0.2-0.2-0.4-0.1-0.6l0,0
	c0.3-1.7,0.6-3.3,1-4.8c0.3-1.6,0.7-3.1,1.1-4.6s0.7-3,1.1-4.5s0.7-2.9,1-4.4c1.3-5.4,2.1-10.8,2.4-16.3c0.2-4.6-0.3-9.1-1.4-13.5
	c-0.6-2.2-1.6-4.3-2.9-6.2c-1.4-2.1-3.1-4-5.1-5.6c-4.4-3.5-9.2-6.4-14.4-8.6c-5.5-2.4-11.1-4.4-16.9-6c-5.9-1.6-11.9-3-17.9-4
	c-3-0.5-6.1-1-9.2-1.4c-3.1-0.4-6.2-0.8-9.2-1.1l0,0c-0.5,0-0.9-0.4-0.9-0.9C154.9,131.2,155.3,130.8,155.8,130.9L155.8,130.9z"/>
<path class="st0" d="M102.8,148.5c-0.1,0-0.2,0-0.2-0.1c-0.4-0.4-0.3-1.7,0.9-3.7c10.2-19.6,42-28.7,56-31.8
	c-33,12.2-47.5,27-51.3,31.4c-1.1,1.3-2.3,2.4-3.7,3.3C104,148.1,103.4,148.4,102.8,148.5L102.8,148.5z"/>
<path class="st0" d="M152.7,115.2c-13.9,5.7-33.5,15.6-44.9,28.9c-1,1.2-2.2,2.3-3.6,3.2c-0.4,0.3-0.9,0.5-1.3,0.7
	c-0.1-0.3,0-1.3,1-3C112.6,128.3,137.1,119.3,152.7,115.2 M166.2,111.2L166.2,111.2z M166.2,111.2c0,0-49.6,7.5-63.1,33.3l0,0
	c-1.2,2-1.5,3.6-0.8,4.3c0.1,0.1,0.3,0.2,0.5,0.2c0.7-0.1,1.4-0.4,2-0.9c1.4-0.9,2.7-2.1,3.8-3.4
	C112.8,139.8,128.8,123.6,166.2,111.2L166.2,111.2z"/>
<path class="st0" d="M200.2,74.7c-6.7-1.1-16.4-0.6-24.9,0.8c-6.5,1.1-13.1,1.5-19.7,1.4c0,0,3.2,2,0,13.2c0,0,11.1-15.5,44.1-15.4"
	/>
<path class="st0" d="M154.3,92.8l0.8-2.8c3-10.5,0.2-12.6,0.2-12.6l-1.4-1l1.7,0.1c6.5,0.1,13.1-0.3,19.5-1.4
	c9-1.5,18.7-1.8,25.1-0.8c0.3,0,0.5,0.3,0.4,0.6s-0.3,0.5-0.6,0.4h-0.2c-0.1,0-0.1,0-0.2,0h-0.4c-32,0-43.1,15-43.2,15.2L154.3,92.8
	z M156.7,77.4c0.8,1.3,1.5,4.3-0.1,10.8c3.5-3.5,13.5-11.7,33.7-13.6c-5,0.1-10,0.5-15,1.4C169.2,77,162.9,77.5,156.7,77.4z"/>
<path class="st0" d="M193.3,83.2c-11.3,2.3-21.8,7.2-30.8,14.4c-3.9,2.5-8.2,4.2-12.8,5c-1.7,0.2-3.4,0.2-5-0.1
	c-2.4-0.5-6.7-1.1-8.4-0.2c-2.3,1.3-6.5,0-6.5,0c-3.6-1.2-7.1-2.8-10.3-4.8c-8.3-4.9-11.3-1-11.3-1s-1.6-5.1,6.3-6.3
	c1.1-0.1,2.1-0.4,3.2-0.8l5.3-1.8c2.3-0.8,4.2-2.4,5.5-4.5c2.1-3.7,6-9.3,10.5-10.2c0.3-0.1,0.5,0.1,0.6,0.4c0,0.1,0,0.2,0,0.3
	c-0.5,1.1-1.3,2-2.2,2.6c-1.4,0.9-2.5,2.3-3.2,3.8c-0.2,0.5-0.1,1.1,0.3,1.5l0.1,0.1c0.5,0.4,1.3,0.4,1.7-0.1
	c3.2-3.3,15.5-15.5,28.9-22.4l-0.2,0.3l0.3-0.3c2.2-1.2,4.6-2,7.1-2.4c3.1-0.3,2,1.6,1.5,2c-3.3,2.7-12.8,5.9-15.2,8
	c-0.5,0.4-0.6,1.1-0.2,1.6c0.2,0.3,0.6,0.5,1,0.4c7.7-0.2,15.5-0.8,23.1-1.9c0,0,9-2,10.3,1.4c0.1,0.2,0.1,0.3,0.1,0.5
	c0,0.6-0.4,1.2-0.9,1.5c-28,1.1-38.2,5.1-41,6.5c-0.4,0.2-0.6,0.8-0.4,1.2c0,0.1,0.1,0.1,0.1,0.1c2.5,3.3,1.9,8-1.4,10.5
	c-2.9,2.2-6.9,2-9.6-0.5c0.2-0.1,0.4-0.2,0.7-0.3c1.4-0.9,2.2-2.2,1.8-2.9s-1.9-0.5-3.4,0.4c-0.3,0.2-0.5,0.3-0.7,0.5l0,0l-0.3,0.2
	c-0.8,0.8-1.1,1.6-0.8,2.1c0.6,0.7,1.2,1.4,1.9,2c1.2,1.2,2.7,1.9,4.4,2.1l0,0c3.7-0.4,6.8-0.2,5.8,1.4c-1.6,2.8-3.7,3-4.5,2.9
	c-0.5,0-1.1,0-1.6,0H142c4.1,2.2,8.9,2,12.9-0.3c2.6-1.6,6.2-3.8,11-7C180.4,79.3,193.3,83.2,193.3,83.2z"/>
<path class="st0" d="M133.6,103.4c-1.3,0-2.7-0.2-3.9-0.6c-3.6-1.2-7.1-2.8-10.4-4.8c-7.8-4.6-10.6-1.3-10.7-1.1l-0.6,0.7l-0.3-0.9
	c-0.3-1.3-0.1-2.6,0.6-3.7c1-1.7,3.1-2.7,6.1-3.2c1-0.1,2.1-0.4,3.1-0.7l5.3-1.8c2.2-0.7,4-2.2,5.2-4.2c2.4-4.3,6.3-9.5,10.8-10.5
	c0.4-0.1,0.8,0.1,1,0.4s0.3,0.7,0.1,1c-0.5,1.1-1.4,2.1-2.4,2.8c-1.3,0.9-2.4,2.1-3.1,3.6c-0.1,0.3-0.1,0.7,0.2,0.9l0.1,0.1
	c0.3,0.3,0.8,0.3,1.1,0c3.4-3.5,15.6-15.6,29-22.5l2.3-1.2l-0.2,0.2c1.7-0.7,3.4-1.2,5.2-1.5c1.4-0.1,2.3,0.2,2.6,0.8
	c0.2,0.7-0.1,1.5-0.7,2c-1.8,1.5-5.2,3-8.5,4.5c-2.9,1.3-5.6,2.5-6.7,3.4c-0.2,0.2-0.3,0.4-0.2,0.7c0.1,0.2,0.3,0.4,0.6,0.4
	c7.7-0.2,15.4-0.8,23.1-1.9c0.9-0.2,9.4-1.9,10.8,1.7c0.1,0.2,0.1,0.4,0.1,0.7c0,0.8-0.4,1.6-1.1,2l-0.1,0.1h-0.1
	c-28.5,1.2-38.4,5.2-40.8,6.5c-0.1,0.1-0.2,0.1-0.2,0.3c0,0.1,0,0.2,0.1,0.3c2.5,3.6,1.7,8.6-1.9,11.1c-3,2.1-7,1.9-9.8-0.5
	l-0.5-0.5l0.6-0.3c0.2-0.1,0.4-0.2,0.6-0.3c0.8-0.4,1.3-1.1,1.7-1.9c0.1-0.2,0-0.4-0.2-0.4h-0.1c-0.9-0.1-1.7,0.2-2.4,0.7
	c-0.2,0.2-0.5,0.3-0.7,0.5l-0.2,0.2c-0.7,0.7-0.9,1.2-0.7,1.4l0,0c0.6,0.7,1.2,1.4,1.8,1.9c1.1,1.1,2.5,1.8,4,2l0,0
	c4.9-0.5,6,0.1,6.4,0.7c0.3,0.4,0.2,1-0.1,1.4c-1.8,3.1-4.1,3.2-5,3.1h-0.1c3.4,1,7.1,0.6,10.1-1.2c3.1-1.9,6.8-4.2,10.9-7
	c5.8-4.1,12.6-6.5,19.7-6.9c2.9-0.2,5.7,0.1,8.5,0.8l1.9,0.6l-1.9,0.4c-11.2,2.3-21.7,7.2-30.6,14.2c-3.9,2.6-8.4,4.3-13,5.1
	c-1.7,0.2-3.5,0.2-5.2-0.1c-4-0.8-6.9-0.8-8-0.2C135.7,103.2,134.6,103.4,133.6,103.4z M112.1,94.6c1.8,0,4.3,0.6,7.7,2.5
	c3.2,2,6.6,3.5,10.2,4.7c0,0,4,1.2,6.2,0c1.7-0.9,5.6-0.4,8.7,0.2c1.6,0.3,3.2,0.4,4.9,0.1c4.5-0.8,8.8-2.4,12.6-4.9
	c8.4-6.7,18.2-11.4,28.7-13.9c-4.3-0.6-14.2-1-25,6.3c-4.1,2.8-7.8,5.1-11,7c-4.1,2.4-9.2,2.5-13.4,0.3L140,96l3-0.1
	c0.6,0,1.1,0,1.7,0c0.7,0.1,2.5-0.1,4-2.6c0-0.1,0.1-0.3,0.1-0.3s-0.6-0.7-5-0.3v0.1h-0.5c-1.8-0.1-3.5-0.9-4.7-2.2
	c-0.7-0.6-1.4-1.4-2-2.1c-0.5-0.7-0.1-1.8,0.9-2.7l0.3-0.3c0.3-0.2,0.5-0.4,0.8-0.6c0.9-0.7,2-1,3.2-0.8c0.7,0.1,1.2,0.8,1,1.5v0.1
	c-0.4,1.1-1.1,2-2.1,2.5l0,0c1.5,1.1,3.3,1.6,5.1,1.4c3.8-0.5,6.5-4.1,6-7.9c-0.2-1.2-0.6-2.3-1.4-3.3c-0.3-0.3-0.4-0.8-0.3-1.2
	c0.1-0.4,0.4-0.7,0.7-0.9c3.1-1.6,13.2-5.4,41.1-6.6c0.3-0.2,0.5-0.6,0.5-1c0-0.1,0-0.2-0.1-0.3c-0.9-2.4-7.3-1.6-9.7-1.1
	c-7.7,1.1-15.5,1.8-23.2,1.9c-0.9,0-1.6-0.7-1.6-1.6c0-0.5,0.2-0.9,0.6-1.3c1.2-1,4-2.3,6.9-3.6c3.2-1.5,6.6-3,8.3-4.4
	c0.2-0.2,0.5-0.7,0.4-0.9s-0.4-0.3-1.5-0.2c-2.4,0.4-4.7,1.2-6.9,2.3l-0.3,0.3l-0.1-0.1c-13.1,6.9-25.1,18.8-28.5,22.3
	c-0.7,0.7-1.7,0.7-2.4,0.1l-0.1-0.1c-0.6-0.5-0.8-1.3-0.5-2c0.7-1.6,1.9-3,3.4-4c0.9-0.6,1.6-1.5,2.1-2.4c-4.4,0.9-8.2,6.7-10.1,10
	c-1.3,2.2-3.3,3.9-5.7,4.7l-5.2,1.7c-1.1,0.4-2.1,0.6-3.2,0.8c-2.7,0.4-4.5,1.3-5.4,2.7c-0.4,0.6-0.6,1.3-0.6,2.1
	C109.6,94.9,110.8,94.5,112.1,94.6z"/>
<path class="st0" d="M141,8.8L8.8,206.1H154c0.7-1.3,1.3-2.6,1.9-3.9c1.4-3.3,2.5-6.8,3.2-10.4c0.1-0.9,0.3-1.8,0.4-2.6l0.2-2.7
	c0.1-0.9,0.1-1.8,0.1-2.7s0-1.8,0-2.7c-0.4-7.4-2-14.8-4.6-21.7c-1.3-3.6-2.8-7.2-4.4-10.8s-3.4-7.2-5.3-10.9
	c3.4,2.4,6.5,5.2,9.2,8.3c2.8,3.1,5.2,6.6,7.3,10.2c4.4,7.5,7,15.9,7.4,24.6c0.2,4.4-0.3,8.9-1.5,13.2c-0.1,0.5-0.3,1.1-0.5,1.6
	L167,197c-0.2,0.5-0.4,1.1-0.6,1.6l-0.7,1.5l-0.7,1.5l-0.4,0.8l-0.4,0.7l-1.7,2.8c-0.6,0.9-1.3,1.8-1.9,2.6l-1,1.3l-1.2,2.1
	c-0.6,1.8-2.3,3-4.2,3H8.8c-4.9,0-8.8-3.9-8.8-8.8c0-1.7,0.5-3.4,1.5-4.9L133.7,3.9c2.7-4,8.2-5.1,12.2-2.4c0.7,0.5,1.4,1.1,1.9,1.8
	l21.7,27c1.5,1.9,1.2,4.7-0.7,6.2s-4.7,1.2-6.2-0.7l0,0L141,8.8z"/>
<polygon class="st1" points="69.5,179.9 76.5,175.6 83.6,179.9 81.7,171.9 87.9,166.5 79.7,165.8 76.5,158.2 73.4,165.8 65.1,166.5 
	71.4,171.9 "/>
<polygon class="st1" points="114.3,179.9 121.3,175.6 128.4,179.9 126.5,171.9 132.7,166.5 124.5,165.8 121.3,158.2 118.2,165.8 
	109.9,166.5 116.2,171.9 "/>
<polygon class="st1" points="46.7,200.1 53.7,195.8 60.8,200.1 58.8,192.1 65.1,186.7 56.9,186 53.7,178.4 50.5,186 42.3,186.7 
	48.6,192.1 "/>
<polygon class="st1" points="90.6,200.1 97.6,195.8 104.7,200.1 102.8,192.1 109,186.7 100.8,186 97.6,178.4 94.5,186 86.2,186.7 
	92.5,192.1 "/>
<polygon class="st1" points="137.1,200.1 144.2,195.8 151.2,200.1 149.3,192.1 155.6,186.7 147.4,186 144.2,178.4 141,186 
	132.8,186.7 139.1,192.1 "/>
</svg>
