<svg id="Borrador" xmlns="http://www.w3.org/2000/svg" viewBox="0 0 585.13 221"><defs><style>.cls-1,.cls-2,.cls-3,.cls-4{stroke:#000;}.cls-1,.cls-3{stroke-linecap:round;}.cls-1{stroke-linejoin:round;}.cls-15,.cls-2{fill:none;}.cls-2,.cls-3,.cls-4{stroke-miterlimit:10;}.cls-4{fill:#efca2e;stroke-width:2px;}.cls-5{font-size:10.54px;}.cls-10,.cls-12,.cls-5,.cls-9{font-family:Arial-Black, Arial Black;}.cls-6{letter-spacing:-0.04em;}.cls-7{letter-spacing:0em;}.cls-8{letter-spacing:-0.06em;}.cls-9{font-size:29.87px;}.cls-10{font-size:44.8px;letter-spacing:-0.06em;}.cls-11{letter-spacing:-0.07em;}.cls-12{font-size:26.35px;letter-spacing:-0.06em;}.cls-13{letter-spacing:-0.04em;}.cls-14{letter-spacing:-0.06em;}</style></defs><title>Logo de Banner</title><path class="cls-1" d="M626.14-570.59s3.51,3.51,3.51,6.15c0,0-61.49-40.41-132.65,15.81,0,0-15.81,12.3-6.15,13.18s7,2.64,7,2.64-17.57,8.78-14.06-7.91,46.56-34.61,62.37-39,65-4.92,79.94,9.14" transform="translate(-380.94 620.29)"/><path d="M549.72-478.79a43,43,0,0,1,9.83,6.79,53,53,0,0,1,8,9.13,46.84,46.84,0,0,1,5.65,11.07l.52,1.49c.15.51.27,1,.41,1.53a31.19,31.19,0,0,1,.72,3.11,44.11,44.11,0,0,1,.7,6.37l0,3.22-.31,3.2c-.12,1.06-.4,2.1-.59,3.15a22.25,22.25,0,0,1-.82,3.09,45.06,45.06,0,0,1-2.29,5.9,46.66,46.66,0,0,1-3.14,5.39,50.3,50.3,0,0,1-17.74,16.05c4.46-6.56,8.64-12.88,11.56-19.51l.57-1.23c.19-.41.31-.84.47-1.26l1-2.49c.45-1.71,1.08-3.35,1.37-5.06a23.55,23.55,0,0,0,.5-2.54c.1-.85.29-1.7.34-2.55l.2-2.56v-2.57a52.37,52.37,0,0,0-5.12-20.31A114,114,0,0,0,549.72-478.79Z" transform="translate(-380.94 620.29)"/><path d="M576.07-473.08a41.25,41.25,0,0,1,9.13,5.68,52.41,52.41,0,0,1,7.74,7.64,42.45,42.45,0,0,1,9.41,20.33,24.11,24.11,0,0,1,.3,2.91,27.3,27.3,0,0,1,.08,2.94c-.06,1-.09,2-.2,2.94s-.28,1.95-.46,2.91A34.72,34.72,0,0,1,597.73-417a38.79,38.79,0,0,1-16.39,14.21c4.1-5.88,7.78-11.54,10.09-17.43a40.62,40.62,0,0,0,2.23-8.91c0-.75.12-1.5.18-2.24s0-1.5,0-2.24a21.76,21.76,0,0,0-.11-2.24,18.21,18.21,0,0,0-.28-2.24,54.93,54.93,0,0,0-6.35-17.71A171.55,171.55,0,0,0,576.07-473.08Z" transform="translate(-380.94 620.29)"/><path class="cls-2" d="M480.51-456.07c-7.15-12.38,4.12-30.64,27.33-44" transform="translate(-380.94 620.29)"/><path class="cls-1" d="M490-531.06c-6.27,2.51-8.94,7.24-9.46,9.24a4.89,4.89,0,0,0,0,1.92,3.63,3.63,0,0,1-.22,1.66,6.6,6.6,0,0,1-1.85,2.7c-4.06,3.69-21.5,27.6-4,50.47a.25.25,0,0,0,.45-.18c-.43-3.71.69-17.43,23.92-32.42,4-2,5.19-6.45,5.53-8.48a.93.93,0,0,1,1.13-.74c2.38.53,4.61-.24,5.24-1.92s-.55-4.16-2.74-5.36a.65.65,0,0,1-.36-.6c.14-2.43,1.53-2.3,2.51-1.9a30.4,30.4,0,0,0,4.67,1.58,59.93,59.93,0,0,0,23.55.73c11.89-2.1,18.21-1.41,20.29-1a3.5,3.5,0,0,1,1.73.81c1.07,1,1.59,2.61-7.82,2.61h0c-3.81,0-13,1.06-13,1.06-9.78,1-21,4.7-31.61,10.81-23.21,13.4-34.48,31.66-27.33,44a14.45,14.45,0,0,0,3.34,3.92l-2.65-1.61c-36.9-28.11-10.54-59.74-7.91-61.49h0a9.49,9.49,0,0,0,2.64-7c0-8.78,10.54-9.66,10.54-9.66Z" transform="translate(-380.94 620.29)"/><path class="cls-1" d="M505.79-512.61c-3.51-.88-8.86-4.46-8.86-4.46h0c-1.64-.35-1.89-.23-3-1.75a2.27,2.27,0,0,1-.09-3,1.08,1.08,0,0,1,1.13-.3c9.12,2.76,10.81,9.49,10.81,9.49" transform="translate(-380.94 620.29)"/><path class="cls-3" d="M556.51-521.69A39.28,39.28,0,0,0,577-527.55c22-13.18,36-8.78,36-8.78a1.76,1.76,0,0,1,1.76,1.76,1.76,1.76,0,0,1-1.76,1.76s-11-3.66-35.32,10.89c63.12-6.13,66.06,9.32,66.06,9.32s-23-16.94-78,.4c0,0,1.6-5.67-4.55-4.79s-10.77-2.93-4.62-4.68Z" transform="translate(-380.94 620.29)"/><path d="M584.86-567.08a59.72,59.72,0,0,1,19.09-.23c1.59.22,3.19.4,4.75.77s3.16.59,4.7,1,3.1.84,4.64,1.29l4.55,1.59,1.13.41,1.11.48,2.21,1c1.47.65,2.95,1.27,4.35,2.06l4.23,2.28c1.39.79,2.72,1.7,4.06,2.57a81,81,0,0,1,7.69,5.69l.92.75.88.81c.58.55,1.17,1.09,1.73,1.65,1.14,1.11,2.28,2.22,3.37,3.36-1.38-.8-2.72-1.64-4.05-2.49s-2.59-1.77-4-2.49l-4.05-2.36c-1.32-.82-2.71-1.53-4.09-2.25l-4.12-2.17-4.22-2c-1.39-.69-2.82-1.26-4.26-1.84l-2.14-.9-1.07-.45-1.09-.38-4.36-1.58-4.42-1.4c-3-.91-6-1.68-9-2.38A122.31,122.31,0,0,0,584.86-567.08Z" transform="translate(-380.94 620.29)"/><path d="M596.28-552.15a71.17,71.17,0,0,1,12.51,1.08,93,93,0,0,1,12.27,2.94,85.37,85.37,0,0,1,22.9,11,69.75,69.75,0,0,1,9.82,8.34,55.33,55.33,0,0,1,7.83,10.28,48.23,48.23,0,0,1,5,11.81l.76,3.1c.19,1,.36,2.09.5,3.14l.22,1.56.09,1.58c0,1.05.09,2.1.11,3.14-.36-1-.66-2-1-3l-.46-1.47-.57-1.44c-.4-.95-.72-1.91-1.11-2.85l-1.3-2.75a61.28,61.28,0,0,0-6.2-10.24,67.27,67.27,0,0,0-7.9-8.83,86.64,86.64,0,0,0-9.25-7.46,124.88,124.88,0,0,0-21.11-11.54A216.05,216.05,0,0,0,596.28-552.15Z" transform="translate(-380.94 620.29)"/><path d="M507.38-488.43c7.38-3.43,14.92-6.47,22.55-9.29s15.36-5.41,23.2-7.71,15.79-4.24,23.85-5.82a182.34,182.34,0,0,1,24.56-3.05A108.4,108.4,0,0,1,626.77-513a56,56,0,0,1,12.49,3.88l1.51.7,1.48.79,1.47.8q.72.44,1.42.91l1.4.93,1.35,1c.45.35.9.68,1.34,1l1.27,1.13a39.27,39.27,0,0,1,8.23,10.67,42.79,42.79,0,0,1,4.21,12.45,59.94,59.94,0,0,1-1.2,25,.46.46,0,0,1-.55.33.46.46,0,0,1-.34-.41h0c-.6-8.13-1.54-16.1-4-23.32a44.78,44.78,0,0,0-4.92-10,35.11,35.11,0,0,0-7.27-7.9c-5.58-4.48-12.45-7.38-19.79-9.33a89.43,89.43,0,0,0-23.09-2.78,175.81,175.81,0,0,0-23.78,1.76c-7.93,1.05-15.84,2.51-23.7,4.27a380.66,380.66,0,0,0-46.52,13.47h0a.45.45,0,0,1-.58-.27A.45.45,0,0,1,507.38-488.43Z" transform="translate(-380.94 620.29)"/><path d="M521.45-489.58a274.69,274.69,0,0,1,43-9.05,219.65,219.65,0,0,1,22.17-1.68,139.36,139.36,0,0,1,22.6,1.41c7.57,1.21,15.34,2.94,22.85,6.66a39.31,39.31,0,0,1,10.42,7.55,33.71,33.71,0,0,1,7.23,11.19,38.33,38.33,0,0,1,1.82,6.34c.25,1.06.31,2.14.46,3.2a26.12,26.12,0,0,1,.2,3.17c0,.53,0,1.05,0,1.57l-.08,1.55a26.93,26.93,0,0,1-.27,3.07c-.15,1-.25,2-.45,3l-.65,2.92a59.29,59.29,0,0,1-10,20.64.73.73,0,0,1-1,.15.72.72,0,0,1-.29-.65h0c.77-7.45,1.58-14.57,1.43-21.33s-1.35-13-4-17.93a34.88,34.88,0,0,0-11.75-12.42,56.13,56.13,0,0,0-18.11-7.69,129.2,129.2,0,0,0-20.72-3.1,211.52,211.52,0,0,0-21.4-.65c-7.18.07-14.39.46-21.6,1q-5.41.42-10.81,1c-3.6.38-7.21.82-10.79,1.36h0a.7.7,0,0,1-.8-.59A.7.7,0,0,1,521.45-489.58Z" transform="translate(-380.94 620.29)"/><path d="M536.68-489.44a160.84,160.84,0,0,1,18.92-1.32,170.33,170.33,0,0,1,19.12.8A117.06,117.06,0,0,1,594-486.45a69.58,69.58,0,0,1,18.82,8.24,54.45,54.45,0,0,1,8.71,6.9,38.69,38.69,0,0,1,7.11,9.47,32.88,32.88,0,0,1,3.54,11.54,37.08,37.08,0,0,1-.57,11.56,51.52,51.52,0,0,1-8.68,19.24,55.62,55.62,0,0,1-14.29,14,1,1,0,0,1-1.35-.27,1,1,0,0,1-.15-.7v0q.43-2.5,1-4.83c.34-1.58.72-3.13,1.11-4.64s.73-3,1.09-4.51.72-2.94,1-4.39a88.64,88.64,0,0,0,2.38-16.31,44.13,44.13,0,0,0-1.45-13.52,22.91,22.91,0,0,0-2.88-6.24,26.41,26.41,0,0,0-5.08-5.64,60.8,60.8,0,0,0-14.38-8.62,121.35,121.35,0,0,0-16.87-6,181.7,181.7,0,0,0-17.92-4q-4.56-.82-9.17-1.43c-3.07-.44-6.17-.79-9.25-1.07h0a.9.9,0,0,1-.82-1A.91.91,0,0,1,536.68-489.44Z" transform="translate(-380.94 620.29)"/><path d="M483.68-471.77c-.12,0-.16,0-.17,0-.41-.38-.29-1.67.88-3.68,10.25-19.66,42-28.68,56-31.78-33,12.18-47.51,27-51.31,31.43a17.12,17.12,0,0,1-3.69,3.29,4,4,0,0,1-1.73.78Z" transform="translate(-380.94 620.29)"/><path d="M533.15-505c-28.15,11.62-40.89,24.67-44.44,28.81a16.68,16.68,0,0,1-3.58,3.2,5,5,0,0,1-1.33.68c-.06-.32,0-1.3,1-3,8.61-16.53,32.7-25.48,48.3-29.7m13.93-4.11h0Zm0,0s-49.64,7.48-63.12,33.34h0c-1.15,2-1.51,3.62-.79,4.3a.72.72,0,0,0,.52.19,4.38,4.38,0,0,0,2-.86,17.63,17.63,0,0,0,3.79-3.39c4.29-5,20.27-21.13,57.61-33.57Z" transform="translate(-380.94 620.29)"/><path class="cls-3" d="M581.12-545.56c-6.71-1.08-16.43-.63-24.92.8a106.92,106.92,0,0,1-19.66,1.4s3.2,2,0,13.18c0,0,11.08-15.52,44.09-15.38" transform="translate(-380.94 620.29)"/><path class="cls-3" d="M574.24-537a72.82,72.82,0,0,0-30.83,14.39,33.5,33.5,0,0,1-12.76,5,14.81,14.81,0,0,1-5-.14c-2.42-.46-6.72-1.1-8.36-.2-2.34,1.27-6.54,0-6.54,0a49.73,49.73,0,0,1-10.32-4.75c-8.35-4.87-11.31-1-11.31-1s-1.56-5.09,6.27-6.27a17.06,17.06,0,0,0,3.16-.75l5.26-1.82a10,10,0,0,0,5.46-4.49c2.09-3.66,6-9.29,10.47-10.22a.48.48,0,0,1,.54.66A7,7,0,0,1,518-544a8.9,8.9,0,0,0-3.23,3.82,1.28,1.28,0,0,0,.34,1.47l.12.11a1.26,1.26,0,0,0,1.74-.08c3.23-3.34,15.48-15.5,28.86-22.39l-.25.28.32-.32a24.08,24.08,0,0,1,7.11-2.4c3.11-.29,2,1.58,1.5,2-3.3,2.74-12.78,5.86-15.21,8a1.11,1.11,0,0,0,.74,2,193.81,193.81,0,0,0,23.15-1.93s9-2,10.26,1.39a1.39,1.39,0,0,1,.09.49,2,2,0,0,1-.86,1.53c-28,1.13-38.18,5.05-41,6.52a.89.89,0,0,0-.28,1.35,7.47,7.47,0,0,1,1.49,5.81,7.47,7.47,0,0,1-6.42,6.2,7.4,7.4,0,0,1-6.07-2c.22-.11.44-.22.66-.35,1.43-.9,2.25-2.18,1.82-2.86s-1.92-.5-3.36.4a7.31,7.31,0,0,0-.74.54l0,0-.26.24c-.76.75-1.12,1.56-.8,2.06a14.83,14.83,0,0,0,1.92,2,7.27,7.27,0,0,0,4.41,2.08h0c3.66-.37,6.76-.25,5.82,1.37-1.63,2.82-3.66,3-4.49,2.89a14.86,14.86,0,0,0-1.65,0l-1.05,0a13.19,13.19,0,0,0,6.18,1.54,13.15,13.15,0,0,0,6.72-1.84c2.62-1.56,6.18-3.79,11-7C561.29-541,574.24-537,574.24-537Z" transform="translate(-380.94 620.29)"/><path d="M521.93-611.5,389.72-414.23H534.93q1-1.92,1.9-3.89a52,52,0,0,0,3.2-10.4c.12-.9.29-1.77.44-2.65l.24-2.68c.11-.89.07-1.79.11-2.69a25.16,25.16,0,0,0,0-2.7A72.16,72.16,0,0,0,536.15-461c-1.28-3.62-2.78-7.22-4.43-10.81s-3.39-7.2-5.28-10.88a48.8,48.8,0,0,1,9.24,8.3A63.23,63.23,0,0,1,543-464.18a53.66,53.66,0,0,1,7.42,24.57A43,43,0,0,1,549-426.42a15.06,15.06,0,0,1-.49,1.59l-.54,1.57c-.19.52-.35,1.05-.57,1.56l-.69,1.5-.71,1.49-.35.75-.41.71-1.7,2.8c-.6.91-1.29,1.75-1.94,2.62l-1,1.28-1.18,2.14a4.41,4.41,0,0,1-4.16,3H389.72a8.77,8.77,0,0,1-7.75-4.65,8.78,8.78,0,0,1,.45-9L514.63-616.4a8.7,8.7,0,0,1,6.91-3.88,8.71,8.71,0,0,1,7.23,3.27l21.72,27a4.39,4.39,0,0,1-.66,6.18,4.39,4.39,0,0,1-6.18-.66Z" transform="translate(-380.94 620.29)"/><polygon class="cls-4" points="69.5 179.88 76.54 175.57 83.59 179.88 81.67 171.85 87.94 166.48 79.71 165.82 76.54 158.2 73.38 165.82 65.14 166.48 71.42 171.85 69.5 179.88"/><polygon class="cls-4" points="114.3 179.88 121.34 175.57 128.39 179.88 126.47 171.85 132.74 166.48 124.51 165.82 121.34 158.2 118.18 165.82 109.95 166.48 116.22 171.85 114.3 179.88"/><polygon class="cls-4" points="46.66 200.08 53.7 195.78 60.75 200.08 58.83 192.05 65.1 186.68 56.87 186.03 53.7 178.4 50.53 186.03 42.3 186.68 48.58 192.05 46.66 200.08"/><polygon class="cls-4" points="90.58 200.08 97.63 195.78 104.67 200.08 102.75 192.05 109.03 186.68 100.79 186.03 97.63 178.4 94.46 186.03 86.23 186.68 92.5 192.05 90.58 200.08"/><polygon class="cls-4" points="137.14 200.08 144.19 195.78 151.23 200.08 149.31 192.05 155.58 186.68 147.35 186.03 144.19 178.4 141.02 186.03 132.79 186.68 139.06 192.05 137.14 200.08"/><text class="cls-5" transform="translate(307.13 159.54)">SEGURI<tspan class="cls-6" x="45.09" y="0">D</tspan><tspan class="cls-7" x="52.84" y="0">AD PRI</tspan><tspan class="cls-8" x="92.67" y="0">V</tspan><tspan x="100.26" y="0">A</tspan><tspan class="cls-6" x="108.46" y="0">D</tspan><tspan x="116.21" y="0">A</tspan></text><text class="cls-9" transform="translate(366.48 83.85)">G R U P O</text><text class="cls-10" transform="translate(307.13 139.78)">DE<tspan class="cls-11" x="62.1" y="0">L</tspan><tspan x="88.66" y="0">GHER</tspan></text><text class="cls-12" transform="translate(533.6 143.29)">S.<tspan class="cls-13" x="24.8" y="0">C</tspan><tspan class="cls-14" x="44.25" y="0">.</tspan></text><rect class="cls-15" x="538.37" y="113.05" width="26.35" height="9.66"/></svg>