<svg id="Capa_1" data-name="Capa 1" xmlns="http://www.w3.org/2000/svg" viewBox="0 0 585.05 221"><defs><style>.cls-1,.cls-2,.cls-4,.cls-5{fill:#fff;}.cls-1,.cls-4,.cls-5{stroke:#fff;}.cls-1,.cls-4{stroke-linecap:round;}.cls-1{stroke-linejoin:round;}.cls-3{fill:none;stroke:#000;}.cls-3,.cls-4,.cls-5{stroke-miterlimit:10;}.cls-5{stroke-width:2px;}</style></defs><title>Logo Index</title><path class="cls-1" d="M483.14-598.59s3.51,3.51,3.51,6.15c0,0-61.49-40.41-132.65,15.81,0,0-15.81,12.3-6.15,13.18s7,2.64,7,2.64-17.57,8.78-14.06-7.91,46.56-34.61,62.37-39,65-4.92,79.94,9.14" transform="translate(-237.94 648.29)"/><path class="cls-2" d="M406.72-506.79a43,43,0,0,1,9.83,6.79,53,53,0,0,1,8,9.13,46.84,46.84,0,0,1,5.65,11.07l.52,1.49c.15.51.27,1,.41,1.53a31.19,31.19,0,0,1,.72,3.11,44.11,44.11,0,0,1,.7,6.37l0,3.22-.31,3.2c-.12,1.06-.4,2.1-.59,3.15a22.25,22.25,0,0,1-.82,3.09,45.05,45.05,0,0,1-2.29,5.9,46.66,46.66,0,0,1-3.14,5.39,50.3,50.3,0,0,1-17.74,16.05c4.46-6.56,8.64-12.88,11.56-19.51l.57-1.23c.19-.41.31-.84.47-1.26l1-2.49c.45-1.71,1.08-3.35,1.37-5.06a23.55,23.55,0,0,0,.5-2.54c.1-.85.29-1.7.34-2.55l.2-2.56v-2.57a52.37,52.37,0,0,0-5.12-20.31A114,114,0,0,0,406.72-506.79Z" transform="translate(-237.94 648.29)"/><path class="cls-2" d="M433.07-501.08a41.25,41.25,0,0,1,9.13,5.68,52.41,52.41,0,0,1,7.74,7.64,42.45,42.45,0,0,1,9.41,20.33,24.11,24.11,0,0,1,.3,2.91,27.3,27.3,0,0,1,.08,2.94c-.06,1-.09,2-.2,2.94s-.28,1.95-.46,2.91A34.72,34.72,0,0,1,454.73-445a38.79,38.79,0,0,1-16.39,14.21c4.1-5.88,7.78-11.54,10.09-17.43a40.62,40.62,0,0,0,2.23-8.91c0-.75.12-1.5.18-2.24s0-1.5,0-2.24a21.76,21.76,0,0,0-.11-2.24,18.21,18.21,0,0,0-.28-2.24,54.93,54.93,0,0,0-6.35-17.71A171.55,171.55,0,0,0,433.07-501.08Z" transform="translate(-237.94 648.29)"/><path class="cls-3" d="M337.51-484.07c-7.15-12.38,4.12-30.64,27.33-44" transform="translate(-237.94 648.29)"/><path class="cls-1" d="M347-559.06c-6.27,2.51-8.94,7.24-9.46,9.24a4.89,4.89,0,0,0,0,1.92,3.63,3.63,0,0,1-.22,1.66,6.6,6.6,0,0,1-1.85,2.7c-4.06,3.69-21.5,27.6-4,50.47a.25.25,0,0,0,.45-.18c-.43-3.71.69-17.43,23.92-32.42,4-2,5.19-6.45,5.53-8.48a.93.93,0,0,1,1.13-.74c2.38.53,4.61-.24,5.24-1.92s-.55-4.16-2.74-5.36a.65.65,0,0,1-.36-.6c.14-2.43,1.53-2.3,2.51-1.9a30.4,30.4,0,0,0,4.67,1.58,59.93,59.93,0,0,0,23.55.73c11.89-2.1,18.21-1.41,20.29-1a3.5,3.5,0,0,1,1.73.81c1.07,1,1.59,2.61-7.82,2.61h0c-3.81,0-13,1.06-13,1.06-9.78,1-21,4.7-31.61,10.81-23.21,13.4-34.48,31.66-27.33,44a14.45,14.45,0,0,0,3.34,3.92l-2.65-1.61c-36.9-28.11-10.54-59.74-7.91-61.49h0a9.49,9.49,0,0,0,2.64-7c0-8.78,10.54-9.66,10.54-9.66Z" transform="translate(-237.94 648.29)"/><path class="cls-1" d="M362.79-540.61c-3.51-.88-8.86-4.46-8.86-4.46h0c-1.64-.35-1.89-.23-3-1.75a2.27,2.27,0,0,1-.09-3,1.08,1.08,0,0,1,1.13-.3c9.12,2.76,10.81,9.49,10.81,9.49" transform="translate(-237.94 648.29)"/><path class="cls-4" d="M413.51-549.69A39.28,39.28,0,0,0,434-555.55c22-13.18,36-8.78,36-8.78a1.76,1.76,0,0,1,1.76,1.76,1.76,1.76,0,0,1-1.76,1.76s-11-3.66-35.32,10.89c63.12-6.13,66.06,9.32,66.06,9.32s-23-16.94-78,.4c0,0,1.6-5.67-4.55-4.79s-10.77-2.93-4.62-4.68Z" transform="translate(-237.94 648.29)"/><path class="cls-2" d="M441.86-595.08a59.72,59.72,0,0,1,19.09-.23c1.59.22,3.19.4,4.75.77s3.16.59,4.7,1,3.1.84,4.64,1.29l4.55,1.59,1.13.41,1.11.48,2.21,1c1.47.65,2.95,1.27,4.35,2.06l4.23,2.28c1.39.79,2.72,1.7,4.06,2.57a81,81,0,0,1,7.69,5.69l.92.75.88.81c.58.55,1.17,1.09,1.73,1.65,1.14,1.11,2.28,2.22,3.37,3.36-1.38-.8-2.72-1.64-4.05-2.49s-2.59-1.77-4-2.49l-4.05-2.36c-1.32-.82-2.71-1.53-4.09-2.25l-4.12-2.17-4.22-2c-1.39-.69-2.82-1.26-4.26-1.84l-2.14-.9-1.07-.45-1.09-.38-4.36-1.58-4.42-1.4c-3-.91-6-1.68-9-2.38A122.3,122.3,0,0,0,441.86-595.08Z" transform="translate(-237.94 648.29)"/><path class="cls-2" d="M453.28-580.15a71.16,71.16,0,0,1,12.51,1.08,93,93,0,0,1,12.27,2.94,85.38,85.38,0,0,1,22.9,11,69.75,69.75,0,0,1,9.82,8.34,55.33,55.33,0,0,1,7.83,10.28,48.22,48.22,0,0,1,5,11.81l.76,3.1c.19,1,.36,2.09.5,3.14l.22,1.56.09,1.58c0,1.05.09,2.1.11,3.14-.36-1-.66-2-1-3l-.46-1.47-.57-1.44c-.4-.95-.72-1.91-1.11-2.85l-1.3-2.75a61.28,61.28,0,0,0-6.2-10.24,67.27,67.27,0,0,0-7.9-8.83,86.64,86.64,0,0,0-9.25-7.46,124.88,124.88,0,0,0-21.11-11.54A216.06,216.06,0,0,0,453.28-580.15Z" transform="translate(-237.94 648.29)"/><path class="cls-2" d="M364.38-516.43c7.38-3.43,14.92-6.47,22.55-9.29s15.36-5.41,23.2-7.71,15.79-4.24,23.85-5.82a182.35,182.35,0,0,1,24.56-3.05A108.41,108.41,0,0,1,483.77-541a56,56,0,0,1,12.49,3.88l1.51.7,1.48.79,1.47.8q.72.44,1.42.91l1.4.93,1.35,1c.45.35.9.68,1.34,1l1.27,1.13a39.27,39.27,0,0,1,8.23,10.67,42.79,42.79,0,0,1,4.21,12.45,59.93,59.93,0,0,1-1.2,25,.46.46,0,0,1-.55.33.46.46,0,0,1-.34-.41h0c-.6-8.13-1.54-16.1-4-23.32a44.78,44.78,0,0,0-4.92-10,35.11,35.11,0,0,0-7.27-7.9c-5.58-4.48-12.45-7.38-19.79-9.33a89.43,89.43,0,0,0-23.09-2.78,175.8,175.8,0,0,0-23.78,1.76c-7.93,1.05-15.84,2.51-23.7,4.27a380.66,380.66,0,0,0-46.52,13.47h0a.45.45,0,0,1-.58-.27A.45.45,0,0,1,364.38-516.43Z" transform="translate(-237.94 648.29)"/><path class="cls-2" d="M378.45-517.58a274.69,274.69,0,0,1,43-9.05,219.65,219.65,0,0,1,22.17-1.68,139.36,139.36,0,0,1,22.6,1.41c7.57,1.21,15.34,2.94,22.85,6.66a39.31,39.31,0,0,1,10.42,7.55,33.71,33.71,0,0,1,7.23,11.19,38.33,38.33,0,0,1,1.82,6.34c.25,1.06.31,2.14.46,3.2a26.12,26.12,0,0,1,.2,3.17c0,.53,0,1.05,0,1.57l-.08,1.55a26.93,26.93,0,0,1-.27,3.07c-.15,1-.25,2-.45,3l-.65,2.92a59.29,59.29,0,0,1-10,20.64.73.73,0,0,1-1,.15.72.72,0,0,1-.29-.65h0c.77-7.45,1.58-14.57,1.43-21.33s-1.35-13-4-17.93a34.88,34.88,0,0,0-11.75-12.42,56.13,56.13,0,0,0-18.11-7.69,129.2,129.2,0,0,0-20.72-3.1,211.5,211.5,0,0,0-21.4-.65c-7.18.07-14.39.46-21.6,1q-5.41.42-10.81,1c-3.6.38-7.21.82-10.79,1.36h0a.7.7,0,0,1-.8-.59A.7.7,0,0,1,378.45-517.58Z" transform="translate(-237.94 648.29)"/><path class="cls-2" d="M393.68-517.44a160.84,160.84,0,0,1,18.92-1.32,170.35,170.35,0,0,1,19.12.8A117.07,117.07,0,0,1,451-514.45a69.58,69.58,0,0,1,18.82,8.24,54.45,54.45,0,0,1,8.71,6.9,38.69,38.69,0,0,1,7.11,9.47,32.88,32.88,0,0,1,3.54,11.54,37.08,37.08,0,0,1-.57,11.56,51.52,51.52,0,0,1-8.68,19.24,55.62,55.62,0,0,1-14.29,14,1,1,0,0,1-1.35-.27,1,1,0,0,1-.15-.7v0q.43-2.5,1-4.83c.34-1.58.72-3.13,1.11-4.64s.73-3,1.09-4.51.72-2.94,1-4.39a88.64,88.64,0,0,0,2.38-16.31,44.13,44.13,0,0,0-1.45-13.52,22.91,22.91,0,0,0-2.88-6.24,26.41,26.41,0,0,0-5.08-5.64,60.8,60.8,0,0,0-14.38-8.62,121.35,121.35,0,0,0-16.87-6,181.7,181.7,0,0,0-17.92-4q-4.56-.82-9.17-1.43c-3.07-.44-6.17-.79-9.25-1.07h0a.9.9,0,0,1-.82-1A.91.91,0,0,1,393.68-517.44Z" transform="translate(-237.94 648.29)"/><path class="cls-2" d="M340.68-499.77a.22.22,0,0,1-.17,0c-.41-.38-.29-1.67.88-3.68,10.25-19.66,42-28.68,56-31.78-33,12.18-47.51,27-51.31,31.44a17.16,17.16,0,0,1-3.69,3.29,4,4,0,0,1-1.73.78Z" transform="translate(-237.94 648.29)"/><path class="cls-2" d="M390.58-533.11c-13.85,5.73-33.46,15.58-44.87,28.93a16.68,16.68,0,0,1-3.58,3.2,5,5,0,0,1-1.33.68c-.06-.32,0-1.3,1-3,8.69-16.68,33.15-25.65,48.74-29.81m13.5-4h0Zm0,0s-49.64,7.48-63.12,33.34h0c-1.15,2-1.51,3.62-.79,4.3a.72.72,0,0,0,.52.19,4.38,4.38,0,0,0,2-.86,17.63,17.63,0,0,0,3.79-3.39c4.29-5,20.27-21.13,57.61-33.57Z" transform="translate(-237.94 648.29)"/><path class="cls-4" d="M438.12-573.56c-6.71-1.08-16.43-.63-24.92.8a106.92,106.92,0,0,1-19.66,1.4s3.2,2,0,13.18c0,0,11.08-15.52,44.09-15.38" transform="translate(-237.94 648.29)"/><path class="cls-4" d="M431.24-565a72.82,72.82,0,0,0-30.83,14.39,33.5,33.5,0,0,1-12.76,5,14.81,14.81,0,0,1-5-.14c-2.42-.46-6.72-1.1-8.36-.2-2.34,1.27-6.54,0-6.54,0a49.73,49.73,0,0,1-10.32-4.75c-8.35-4.87-11.31-1-11.31-1s-1.56-5.09,6.27-6.27a17.06,17.06,0,0,0,3.16-.75l5.26-1.82a10,10,0,0,0,5.46-4.49c2.09-3.66,6-9.29,10.47-10.22a.48.48,0,0,1,.54.66A7,7,0,0,1,375-572a8.9,8.9,0,0,0-3.23,3.82,1.28,1.28,0,0,0,.34,1.47l.12.11a1.26,1.26,0,0,0,1.74-.08c3.23-3.34,15.48-15.5,28.86-22.39l-.25.28.32-.32a24.08,24.08,0,0,1,7.11-2.4c3.11-.29,2,1.58,1.5,2-3.3,2.74-12.78,5.86-15.21,8a1.11,1.11,0,0,0,.74,2,193.81,193.81,0,0,0,23.15-1.93s9-2,10.26,1.39a1.39,1.39,0,0,1,.09.49,2,2,0,0,1-.86,1.53c-28,1.13-38.18,5.05-41,6.52a.89.89,0,0,0-.28,1.35,7.47,7.47,0,0,1,1.49,5.81,7.47,7.47,0,0,1-6.42,6.2,7.4,7.4,0,0,1-6.07-2c.22-.11.44-.22.66-.35,1.43-.9,2.25-2.18,1.82-2.86s-1.92-.5-3.36.4a7.31,7.31,0,0,0-.74.54l0,0-.26.24c-.76.75-1.12,1.56-.8,2.06a14.83,14.83,0,0,0,1.92,2,7.27,7.27,0,0,0,4.41,2.08h0c3.66-.37,6.76-.25,5.82,1.37-1.63,2.82-3.66,3-4.49,2.89a14.86,14.86,0,0,0-1.65,0l-1.05,0a13.19,13.19,0,0,0,6.18,1.54,13.15,13.15,0,0,0,6.72-1.84c2.62-1.56,6.18-3.79,11-7C418.29-569,431.24-565,431.24-565Z" transform="translate(-237.94 648.29)"/><path class="cls-2" d="M378.93-639.5,246.72-442.23H391.93q1-1.92,1.9-3.89a52,52,0,0,0,3.2-10.4c.12-.9.29-1.77.44-2.65l.24-2.68c.11-.89.07-1.79.11-2.69a25.16,25.16,0,0,0,0-2.7A72.16,72.16,0,0,0,393.15-489c-1.28-3.62-2.78-7.22-4.43-10.81s-3.39-7.2-5.28-10.88a48.8,48.8,0,0,1,9.24,8.3A63.23,63.23,0,0,1,400-492.18a53.66,53.66,0,0,1,7.42,24.57A43,43,0,0,1,406-454.42a15.06,15.06,0,0,1-.49,1.59l-.54,1.57c-.19.52-.35,1.05-.57,1.56l-.69,1.5-.71,1.49-.35.75-.41.71-1.7,2.8c-.6.91-1.29,1.75-1.94,2.62l-1,1.28-1.18,2.14a4.41,4.41,0,0,1-4.16,3H246.72a8.77,8.77,0,0,1-7.75-4.65,8.78,8.78,0,0,1,.45-9L371.63-644.4a8.7,8.7,0,0,1,6.91-3.88,8.71,8.71,0,0,1,7.23,3.27l21.72,27a4.39,4.39,0,0,1-.66,6.18,4.39,4.39,0,0,1-6.18-.66Z" transform="translate(-237.94 648.29)"/><polygon class="cls-5" points="69.5 179.88 76.54 175.57 83.59 179.88 81.67 171.85 87.94 166.48 79.71 165.82 76.54 158.2 73.38 165.82 65.14 166.48 71.42 171.85 69.5 179.88"/><polygon class="cls-5" points="114.3 179.88 121.34 175.57 128.39 179.88 126.47 171.85 132.74 166.48 124.51 165.82 121.34 158.2 118.18 165.82 109.95 166.48 116.22 171.85 114.3 179.88"/><polygon class="cls-5" points="46.66 200.08 53.7 195.78 60.75 200.08 58.83 192.05 65.1 186.68 56.87 186.03 53.7 178.4 50.53 186.03 42.3 186.68 48.58 192.05 46.66 200.08"/><polygon class="cls-5" points="90.58 200.08 97.63 195.78 104.67 200.08 102.75 192.05 109.03 186.68 100.79 186.03 97.63 178.4 94.46 186.03 86.23 186.68 92.5 192.05 90.58 200.08"/><polygon class="cls-5" points="137.14 200.08 144.19 195.78 151.23 200.08 149.31 192.05 155.58 186.68 147.35 186.03 144.19 178.4 141.02 186.03 132.79 186.68 139.06 192.05 137.14 200.08"/><path class="cls-2" d="M545.43-491.25l2.22-.14a1.7,1.7,0,0,0,.29.82,1.23,1.23,0,0,0,1,.46,1.14,1.14,0,0,0,.77-.23.7.7,0,0,0,.27-.54.69.69,0,0,0-.26-.53,3,3,0,0,0-1.19-.44,5.07,5.07,0,0,1-2.19-.92,1.84,1.84,0,0,1-.66-1.46,2,2,0,0,1,.34-1.1,2.24,2.24,0,0,1,1-.81,4.74,4.74,0,0,1,1.86-.3,3.8,3.8,0,0,1,2.21.54,2.32,2.32,0,0,1,.9,1.71l-2.2.13a1.18,1.18,0,0,0-.37-.74,1.18,1.18,0,0,0-.77-.23.93.93,0,0,0-.61.17.53.53,0,0,0-.21.42.42.42,0,0,0,.17.32,1.91,1.91,0,0,0,.78.28,9.74,9.74,0,0,1,2.19.67,2.3,2.3,0,0,1,1,.84,2.12,2.12,0,0,1,.3,1.12,2.39,2.39,0,0,1-.4,1.34,2.52,2.52,0,0,1-1.12.93,4.54,4.54,0,0,1-1.82.32,3.74,3.74,0,0,1-2.67-.74A2.92,2.92,0,0,1,545.43-491.25Z" transform="translate(-237.94 648.29)"/><path class="cls-2" d="M553.44-496.3h6.25v1.61h-3.91v1.2h3.63v1.54h-3.63v1.49h4v1.71h-6.36Z" transform="translate(-237.94 648.29)"/><path class="cls-2" d="M564.85-491.48v-1.57h3.6v3.22a7.4,7.4,0,0,1-1.83,1,6.21,6.21,0,0,1-1.89.25,4.59,4.59,0,0,1-2.19-.46,3.14,3.14,0,0,1-1.31-1.36,4.49,4.49,0,0,1-.47-2.08,4.34,4.34,0,0,1,.51-2.15,3.3,3.3,0,0,1,1.49-1.39,4.86,4.86,0,0,1,2.06-.37,5.82,5.82,0,0,1,1.87.23,2.44,2.44,0,0,1,1,.7,3.12,3.12,0,0,1,.62,1.21l-2.25.4a1.22,1.22,0,0,0-.47-.65,1.47,1.47,0,0,0-.85-.23,1.53,1.53,0,0,0-1.22.53,2.56,2.56,0,0,0-.46,1.69,2.64,2.64,0,0,0,.46,1.75,1.62,1.62,0,0,0,1.28.53,2.45,2.45,0,0,0,.75-.11,4,4,0,0,0,.81-.39v-.71Z" transform="translate(-237.94 648.29)"/><path class="cls-2" d="M574.75-496.3h2.33v4.5a3.8,3.8,0,0,1-.21,1.26,2.74,2.74,0,0,1-.65,1,2.62,2.62,0,0,1-.93.63,4.71,4.71,0,0,1-1.63.25,10.41,10.41,0,0,1-1.2-.08,3.13,3.13,0,0,1-1.09-.31,2.72,2.72,0,0,1-.8-.65,2.38,2.38,0,0,1-.5-.87,4.49,4.49,0,0,1-.22-1.28v-4.5h2.33v4.6a1.31,1.31,0,0,0,.34,1,1.27,1.27,0,0,0,.95.35,1.28,1.28,0,0,0,.94-.34,1.31,1.31,0,0,0,.34-1Z" transform="translate(-237.94 648.29)"/><path class="cls-2" d="M578.65-488.75v-7.55h3.89a5.63,5.63,0,0,1,1.65.19,1.76,1.76,0,0,1,.92.69,2.08,2.08,0,0,1,.35,1.22,2.1,2.1,0,0,1-.27,1.08,2.09,2.09,0,0,1-.74.74,2.83,2.83,0,0,1-.82.3,2.32,2.32,0,0,1,.61.28,2.32,2.32,0,0,1,.37.4,2.9,2.9,0,0,1,.33.47l1.13,2.19h-2.63l-1.25-2.31a1.75,1.75,0,0,0-.42-.58,1,1,0,0,0-.57-.17H581v3.06Zm2.34-4.49h1a3.46,3.46,0,0,0,.62-.1.61.61,0,0,0,.38-.24.7.7,0,0,0,.15-.44.7.7,0,0,0-.23-.56,1.4,1.4,0,0,0-.87-.2h-1Z" transform="translate(-237.94 648.29)"/><path class="cls-2" d="M586.92-496.3h2.34v7.55h-2.34Z" transform="translate(-237.94 648.29)"/><path class="cls-2" d="M591-496.3h3.46a4.14,4.14,0,0,1,1.65.28,2.69,2.69,0,0,1,1,.8,3.3,3.3,0,0,1,.6,1.21,5.61,5.61,0,0,1,.19,1.46,5.07,5.07,0,0,1-.28,1.88,3.11,3.11,0,0,1-.76,1.12,2.49,2.49,0,0,1-1.05.6,5.39,5.39,0,0,1-1.39.21H591Zm2.33,1.71v4.12h.57a2.41,2.41,0,0,0,1-.16,1.1,1.1,0,0,0,.48-.57,3.55,3.55,0,0,0,.18-1.31,2.55,2.55,0,0,0-.39-1.64,1.66,1.66,0,0,0-1.3-.44Z" transform="translate(-237.94 648.29)"/><path class="cls-2" d="M603.31-490h-2.65l-.37,1.25h-2.38l2.84-7.55h2.54l2.84,7.55h-2.44Zm-.48-1.63-.83-2.71-.82,2.71Z" transform="translate(-237.94 648.29)"/><path class="cls-2" d="M606.9-496.3h3.46A4.14,4.14,0,0,1,612-496a2.69,2.69,0,0,1,1,.8,3.3,3.3,0,0,1,.6,1.21,5.61,5.61,0,0,1,.19,1.46,5.07,5.07,0,0,1-.28,1.88,3.11,3.11,0,0,1-.76,1.12,2.49,2.49,0,0,1-1.05.6,5.39,5.39,0,0,1-1.39.21H606.9Zm2.33,1.71v4.12h.57a2.41,2.41,0,0,0,1-.16,1.1,1.1,0,0,0,.48-.57,3.55,3.55,0,0,0,.18-1.31,2.55,2.55,0,0,0-.39-1.64,1.66,1.66,0,0,0-1.3-.44Z" transform="translate(-237.94 648.29)"/><path class="cls-2" d="M618.58-496.3h3.88a2.65,2.65,0,0,1,1.9.6A2.26,2.26,0,0,1,625-494a2.33,2.33,0,0,1-.69,1.79,3,3,0,0,1-2.1.64h-1.28v2.8h-2.34Zm2.34,3.22h.57a1.47,1.47,0,0,0,.95-.23.75.75,0,0,0,.27-.6.84.84,0,0,0-.24-.6,1.23,1.23,0,0,0-.89-.25h-.66Z" transform="translate(-237.94 648.29)"/><path class="cls-2" d="M626.23-488.75v-7.55h3.89a5.63,5.63,0,0,1,1.65.19,1.76,1.76,0,0,1,.92.69,2.08,2.08,0,0,1,.35,1.22,2.1,2.1,0,0,1-.27,1.08,2.09,2.09,0,0,1-.74.74,2.83,2.83,0,0,1-.82.3,2.32,2.32,0,0,1,.61.28,2.32,2.32,0,0,1,.37.4,2.9,2.9,0,0,1,.33.47l1.13,2.19H631l-1.25-2.31a1.75,1.75,0,0,0-.42-.58,1,1,0,0,0-.57-.17h-.21v3.06Zm2.34-4.49h1a3.46,3.46,0,0,0,.62-.1.61.61,0,0,0,.38-.24.7.7,0,0,0,.15-.44.7.7,0,0,0-.23-.56,1.4,1.4,0,0,0-.87-.2h-1Z" transform="translate(-237.94 648.29)"/><path class="cls-2" d="M634.49-496.3h2.34v7.55h-2.34Z" transform="translate(-237.94 648.29)"/><path class="cls-2" d="M637.76-496.3h2.44l1.7,5.43,1.68-5.43h2.37l-2.8,7.55h-2.53Z" transform="translate(-237.94 648.29)"/><path class="cls-2" d="M650.74-490h-2.65l-.37,1.25h-2.38l2.84-7.55h2.54l2.84,7.55h-2.44Zm-.48-1.63-.83-2.71-.82,2.71Z" transform="translate(-237.94 648.29)"/><path class="cls-2" d="M654.33-496.3h3.46a4.14,4.14,0,0,1,1.65.28,2.69,2.69,0,0,1,1,.8,3.3,3.3,0,0,1,.6,1.21,5.61,5.61,0,0,1,.19,1.46,5.07,5.07,0,0,1-.28,1.88,3.11,3.11,0,0,1-.76,1.12,2.49,2.49,0,0,1-1.05.6,5.39,5.39,0,0,1-1.39.21h-3.46Zm2.33,1.71v4.12h.57a2.41,2.41,0,0,0,1-.16,1.1,1.1,0,0,0,.48-.57,3.55,3.55,0,0,0,.18-1.31,2.55,2.55,0,0,0-.39-1.64,1.66,1.66,0,0,0-1.3-.44Z" transform="translate(-237.94 648.29)"/><path class="cls-2" d="M666.68-490H664l-.37,1.25h-2.38l2.84-7.55h2.54l2.84,7.55h-2.44Zm-.48-1.63-.83-2.71-.82,2.71Z" transform="translate(-237.94 648.29)"/><path class="cls-2" d="M617.36-572.18v-4.45h10.21v9.12a20.91,20.91,0,0,1-5.18,2.72,17.59,17.59,0,0,1-5.34.72,13,13,0,0,1-6.21-1.3,8.88,8.88,0,0,1-3.72-3.86,12.7,12.7,0,0,1-1.32-5.89,12.3,12.3,0,0,1,1.44-6.09,9.35,9.35,0,0,1,4.23-3.93,13.76,13.76,0,0,1,5.85-1,16.42,16.42,0,0,1,5.3.64,6.88,6.88,0,0,1,2.92,2,8.85,8.85,0,0,1,1.74,3.42L620.9-579a3.46,3.46,0,0,0-1.33-1.85,4.17,4.17,0,0,0-2.4-.64A4.32,4.32,0,0,0,613.7-580a7.27,7.27,0,0,0-1.29,4.78q0,3.47,1.31,5a4.58,4.58,0,0,0,3.64,1.49,6.92,6.92,0,0,0,2.11-.32,11.41,11.41,0,0,0,2.3-1.09v-2Z" transform="translate(-237.94 648.29)"/><path class="cls-2" d="M641.54-564.44v-21.38h11a16,16,0,0,1,4.68.52,5,5,0,0,1,2.61,1.95,5.9,5.9,0,0,1,1,3.46,6,6,0,0,1-.76,3.07,5.94,5.94,0,0,1-2.09,2.09,8,8,0,0,1-2.32.85,6.57,6.57,0,0,1,1.72.79,6.63,6.63,0,0,1,1.06,1.12,8.43,8.43,0,0,1,.93,1.33l3.2,6.2H655.1L651.57-571a5,5,0,0,0-1.2-1.65,2.77,2.77,0,0,0-1.62-.5h-.58v8.68Zm6.64-12.72H651a10,10,0,0,0,1.75-.29,1.75,1.75,0,0,0,1.07-.67,2,2,0,0,0,.42-1.24,2,2,0,0,0-.66-1.59,4,4,0,0,0-2.46-.55h-2.9Z" transform="translate(-237.94 648.29)"/><path class="cls-2" d="M688.55-585.82h6.59v12.74a10.73,10.73,0,0,1-.59,3.58,7.73,7.73,0,0,1-1.85,2.94,7.39,7.39,0,0,1-2.65,1.77,13.31,13.31,0,0,1-4.62.71,29.13,29.13,0,0,1-3.41-.22,8.92,8.92,0,0,1-3.08-.87,7.73,7.73,0,0,1-2.27-1.84,6.77,6.77,0,0,1-1.41-2.46,12.76,12.76,0,0,1-.61-3.62v-12.74h6.59v13a3.72,3.72,0,0,0,1,2.73,3.61,3.61,0,0,0,2.69,1,3.62,3.62,0,0,0,2.68-1,3.71,3.71,0,0,0,1-2.75Z" transform="translate(-237.94 648.29)"/><path class="cls-2" d="M709.45-585.82h11a7.51,7.51,0,0,1,5.37,1.71,6.4,6.4,0,0,1,1.79,4.86,6.59,6.59,0,0,1-1.95,5.06q-1.95,1.82-5.94,1.82h-3.62v7.93h-6.64Zm6.64,9.12h1.62a4.16,4.16,0,0,0,2.68-.66,2.14,2.14,0,0,0,.77-1.7,2.37,2.37,0,0,0-.67-1.71,3.48,3.48,0,0,0-2.52-.7h-1.88Z" transform="translate(-237.94 648.29)"/><path class="cls-2" d="M740.18-575.11q0-5.24,2.92-8.15t8.12-2.92q5.34,0,8.23,2.87t2.89,8a13.17,13.17,0,0,1-1.26,6.15,9,9,0,0,1-3.65,3.73,12,12,0,0,1-5.94,1.33,13.68,13.68,0,0,1-6-1.15,9,9,0,0,1-3.84-3.65A12.11,12.11,0,0,1,740.18-575.11Zm6.61,0q0,3.24,1.2,4.65a4.07,4.07,0,0,0,3.27,1.42,4.07,4.07,0,0,0,3.3-1.39q1.17-1.39,1.17-5a6.61,6.61,0,0,0-1.22-4.41,4.16,4.16,0,0,0-3.3-1.39,4,4,0,0,0-3.21,1.41Q746.79-578.35,746.79-575.09Z" transform="translate(-237.94 648.29)"/><path class="cls-2" d="M548.48-540.58H563.2a17.63,17.63,0,0,1,7,1.18,11.44,11.44,0,0,1,4.43,3.39,14,14,0,0,1,2.54,5.14,23.87,23.87,0,0,1,.79,6.21,21.58,21.58,0,0,1-1.17,8,13.2,13.2,0,0,1-3.25,4.75,10.6,10.6,0,0,1-4.46,2.55,23,23,0,0,1-5.91.88H548.48Zm9.91,7.26v17.52h2.43a10.22,10.22,0,0,0,4.42-.69,4.68,4.68,0,0,0,2.06-2.41,15.11,15.11,0,0,0,.74-5.57q0-5.1-1.66-7t-5.51-1.88Z" transform="translate(-237.94 648.29)"/><path class="cls-2" d="M580.62-540.58h26.56v6.85H590.55v5.1H606v6.54H590.55v6.32h17.11v7.26h-27Z" transform="translate(-237.94 648.29)"/><path class="cls-2" d="M610.44-540.58h9.91v24.17h15.47v7.9H610.44Z" transform="translate(-237.94 648.29)"/><path class="cls-2" d="M653.13-520.13v-6.67h15.31v13.67a31.34,31.34,0,0,1-7.78,4.08,26.41,26.41,0,0,1-8,1.08,19.48,19.48,0,0,1-9.31-1.95,13.32,13.32,0,0,1-5.58-5.8,19,19,0,0,1-2-8.84,18.45,18.45,0,0,1,2.17-9.13,14,14,0,0,1,6.34-5.9,20.63,20.63,0,0,1,8.77-1.55,24.64,24.64,0,0,1,8,1,10.32,10.32,0,0,1,4.38,3A13.26,13.26,0,0,1,668-532l-9.56,1.71a5.17,5.17,0,0,0-2-2.78,6.25,6.25,0,0,0-3.6-1,6.49,6.49,0,0,0-5.2,2.26q-1.94,2.26-1.94,7.16,0,5.21,2,7.44a6.88,6.88,0,0,0,5.46,2.23,10.37,10.37,0,0,0,3.17-.48,17.09,17.09,0,0,0,3.46-1.64v-3Z" transform="translate(-237.94 648.29)"/><path class="cls-2" d="M671.81-540.58h9.91v11.22h10.83v-11.22h10v32.07h-10v-13H681.72v13h-9.91Z" transform="translate(-237.94 648.29)"/><path class="cls-2" d="M706.51-540.58h26.56v6.85H716.45v5.1h15.42v6.54H716.45v6.32h17.11v7.26h-27Z" transform="translate(-237.94 648.29)"/><path class="cls-2" d="M736.47-508.51v-32.07H753a24,24,0,0,1,7,.79,7.47,7.47,0,0,1,3.92,2.92,8.85,8.85,0,0,1,1.49,5.2,8.93,8.93,0,0,1-1.14,4.61,8.9,8.9,0,0,1-3.13,3.14,12,12,0,0,1-3.48,1.27,9.89,9.89,0,0,1,2.58,1.18,10,10,0,0,1,1.58,1.69,12.54,12.54,0,0,1,1.39,2l4.8,9.29h-11.2l-5.3-9.8a7.47,7.47,0,0,0-1.79-2.47,4.16,4.16,0,0,0-2.43-.74h-.87v13Zm10-19.08h4.18a14.9,14.9,0,0,0,2.63-.44,2.62,2.62,0,0,0,1.61-1,3,3,0,0,0,.62-1.86,3,3,0,0,0-1-2.38q-1-.83-3.7-.83h-4.35Z" transform="translate(-237.94 648.29)"/><path class="cls-2" d="M772.45-511.23l5.55-.35a4.23,4.23,0,0,0,.73,2.06,3.08,3.08,0,0,0,2.57,1.14,2.85,2.85,0,0,0,1.92-.58,1.75,1.75,0,0,0,.67-1.36,1.73,1.73,0,0,0-.64-1.31,7.44,7.44,0,0,0-3-1.09,12.7,12.7,0,0,1-5.47-2.29,4.61,4.61,0,0,1-1.65-3.64,4.94,4.94,0,0,1,.84-2.75,5.58,5.58,0,0,1,2.54-2,11.83,11.83,0,0,1,4.64-.74,9.49,9.49,0,0,1,5.51,1.34,5.81,5.81,0,0,1,2.26,4.28l-5.5.32a3,3,0,0,0-.92-1.85,3,3,0,0,0-1.94-.58,2.34,2.34,0,0,0-1.53.43,1.32,1.32,0,0,0-.51,1,1.05,1.05,0,0,0,.42.81,4.76,4.76,0,0,0,2,.69,24.51,24.51,0,0,1,5.48,1.67,5.75,5.75,0,0,1,2.41,2.09,5.3,5.3,0,0,1,.75,2.79,6,6,0,0,1-1,3.35,6.28,6.28,0,0,1-2.8,2.32,11.34,11.34,0,0,1-4.54.79q-4.81,0-6.67-1.85A7.31,7.31,0,0,1,772.45-511.23Z" transform="translate(-237.94 648.29)"/><path class="cls-2" d="M790.67-510.24h5.6V-505h-5.6Z" transform="translate(-237.94 648.29)"/><path class="cls-2" d="M810.83-512.71l5.11,1.54a9.43,9.43,0,0,1-1.62,3.59,7,7,0,0,1-2.75,2.17,10.27,10.27,0,0,1-4.18.73,12.13,12.13,0,0,1-5-.89,8,8,0,0,1-3.37-3.14,10.65,10.65,0,0,1-1.42-5.76q0-4.68,2.49-7.19a9.47,9.47,0,0,1,7-2.51,9.56,9.56,0,0,1,5.6,1.44,8.47,8.47,0,0,1,3,4.43l-5.15,1.15a4.43,4.43,0,0,0-.57-1.26,3.37,3.37,0,0,0-1.2-1,3.44,3.44,0,0,0-1.58-.36,3.42,3.42,0,0,0-3,1.59,6.77,6.77,0,0,0-.8,3.71q0,3.14,1,4.3a3.26,3.26,0,0,0,2.68,1.16,3.25,3.25,0,0,0,2.53-.94A5.81,5.81,0,0,0,810.83-512.71Z" transform="translate(-237.94 648.29)"/><path class="cls-2" d="M817.39-510.24H823V-505h-5.6Z" transform="translate(-237.94 648.29)"/></svg>